<?xml version="1.0" encoding="UTF-8"?>
<svg version="1.1" xmlns="http://www.w3.org/2000/svg" width="512" height="512">
<path d="M0 0 C1.07954641 -0.00694553 2.15909283 -0.01389106 3.27135277 -0.02104706 C6.86552352 -0.03924942 10.45902918 -0.02907117 14.05322266 -0.01878357 C16.63942964 -0.02584536 19.2256325 -0.03459147 21.81182861 -0.04489136 C28.09309415 -0.06646905 34.37417808 -0.0664207 40.65546846 -0.05826581 C45.76290412 -0.05195172 50.87028704 -0.05311571 55.97772217 -0.05953789 C56.70617541 -0.06043954 57.43462865 -0.0613412 58.18515623 -0.06227018 C59.66525159 -0.06412148 61.14534693 -0.06598404 62.62544227 -0.06785773 C76.48624376 -0.08441419 90.34694329 -0.07573506 104.20773864 -0.05887216 C116.87482833 -0.04417398 129.54168084 -0.05880898 142.20874 -0.08764232 C155.23365365 -0.11706819 168.25845797 -0.12799952 181.2834034 -0.11846012 C182.75788496 -0.11743762 184.23236654 -0.11644301 185.70684814 -0.11547661 C186.43221626 -0.11500022 187.15758437 -0.11452383 187.90493333 -0.114033 C193.00296912 -0.11187325 198.10090085 -0.12164937 203.19891357 -0.13624763 C210.06748478 -0.15564265 216.93560846 -0.14863738 223.80416107 -0.12404823 C226.32200654 -0.11904278 228.83988562 -0.12252308 231.35770416 -0.13519669 C234.80049769 -0.15115288 238.24184451 -0.13614974 241.68457031 -0.11352539 C243.17146142 -0.13127898 243.17146142 -0.13127898 244.68839073 -0.14939123 C252.54975021 -0.04476482 259.10570723 2.11335895 264.99596596 7.47510046 C273.06590445 15.85377271 273.28193478 24.67642952 273.22996521 35.77027893 C273.23414175 37.221839 273.23962102 38.67339581 273.24628502 40.12494659 C273.26071756 44.10080297 273.25650172 48.07645165 273.24911821 52.05231929 C273.24438313 56.34565972 273.25689973 60.63895544 273.26713562 64.93228149 C273.2843251 73.3400724 273.28516293 81.74778858 273.27992272 90.1555925 C273.27587832 96.9940406 273.27732779 103.83246665 273.28267097 110.6709137 C273.2834194 111.64491273 273.28416782 112.61891176 273.28493892 113.62242591 C273.28647045 115.60130295 273.28800879 117.58017997 273.28955389 119.559057 C273.30328069 138.11597521 273.29784107 156.67285126 273.28636868 175.22976851 C273.27644682 192.18342508 273.28935852 209.13697235 273.31330287 226.09061205 C273.33772672 243.51574515 273.34729301 260.94082742 273.34065014 278.36597729 C273.33716384 288.14179854 273.33935043 297.91753585 273.35690117 307.69334412 C273.37166472 316.01983914 273.37220507 324.3461912 273.35483026 332.67268354 C273.34634995 336.91571911 273.34409716 341.15849977 273.35948181 345.40152168 C273.37342946 349.29672899 273.36843829 353.19146544 273.34924258 357.0866462 C273.34551266 358.4850661 273.34831617 359.88352465 273.35885423 361.28190982 C273.48816677 379.77801843 269.00100737 395.68709564 256.04541016 409.30763245 C255.31837891 410.03595276 254.59134766 410.76427307 253.84228516 411.5146637 C253.30087891 412.06767151 252.75947266 412.62067932 252.20166016 413.19044495 C223.43177666 440.14404792 172.52059266 444.63873431 135.36425781 448.90382385 C134.49225235 449.00444122 133.62024689 449.10505859 132.72181702 449.20872498 C131.07134089 449.39797435 129.42050282 449.58410128 127.76927185 449.76664734 C124.64860037 450.12243733 121.83180805 450.51815607 118.84228516 451.5146637 C116.77550848 451.06014435 114.71012666 450.59822805 112.65283203 450.10255432 C107.53836221 449.03274514 102.33792461 448.58040155 97.14929199 447.99977112 C74.13698906 445.36955953 52.03566787 440.89083672 30.02978516 433.6396637 C29.28555298 433.39707825 28.5413208 433.1544928 27.77453613 432.90455627 C6.59956313 425.93980005 -14.73001113 416.26862649 -25.53271484 395.5146637 C-31.26578059 383.1433113 -32.30768131 371.93181225 -32.30488586 358.45281982 C-32.30818846 357.01022424 -32.31191485 355.56762957 -32.31602734 354.12503606 C-32.3260098 350.16960539 -32.32975803 346.21418989 -32.33241665 342.25874841 C-32.33633067 337.9893768 -32.34590793 333.72001707 -32.35462952 329.45065308 C-32.37435873 319.14717215 -32.38445375 308.84369028 -32.39335731 298.5401952 C-32.39774434 293.68553143 -32.40310992 288.83086874 -32.40834618 283.97620583 C-32.42535176 267.83576147 -32.43984692 251.69531778 -32.44709492 235.55486584 C-32.44900472 231.36983426 -32.45092507 227.18480268 -32.45288086 222.99977112 C-32.45360647 221.43957079 -32.45360647 221.43957079 -32.45434674 219.84785125 C-32.46265094 202.99031699 -32.48799744 186.1328536 -32.52046154 169.2753503 C-32.55353325 151.96102897 -32.57154361 134.64674368 -32.57473916 117.33239061 C-32.5769037 107.61374245 -32.58564467 97.89519778 -32.61120033 88.17658043 C-32.63290849 79.90223854 -32.64095701 71.6280253 -32.63123355 63.35365816 C-32.62668975 59.13363978 -32.6285798 54.91388683 -32.647995 50.69390488 C-32.66563314 46.82674247 -32.66462397 42.96003902 -32.6490977 39.0928717 C-32.64672266 37.69788647 -32.65103989 36.3028694 -32.66292635 34.90793278 C-32.75261776 23.68216485 -31.11576744 14.55183969 -23.18395424 6.19087595 C-16.44660027 0.61738089 -8.4106235 -0.06992105 0 0 Z " fill="#A40E19" transform="translate(136.15771484375,29.485336303710938)"/>
<path d="M0 0 C1.07954641 -0.00694553 2.15909283 -0.01389106 3.27135277 -0.02104706 C6.86552352 -0.03924942 10.45902918 -0.02907117 14.05322266 -0.01878357 C16.63942964 -0.02584536 19.2256325 -0.03459147 21.81182861 -0.04489136 C28.09309415 -0.06646905 34.37417808 -0.0664207 40.65546846 -0.05826581 C45.76290412 -0.05195172 50.87028704 -0.05311571 55.97772217 -0.05953789 C56.70617541 -0.06043954 57.43462865 -0.0613412 58.18515623 -0.06227018 C59.66525159 -0.06412148 61.14534693 -0.06598404 62.62544227 -0.06785773 C76.48624376 -0.08441419 90.34694329 -0.07573506 104.20773864 -0.05887216 C116.87482833 -0.04417398 129.54168084 -0.05880898 142.20874 -0.08764232 C155.23365365 -0.11706819 168.25845797 -0.12799952 181.2834034 -0.11846012 C182.75788496 -0.11743762 184.23236654 -0.11644301 185.70684814 -0.11547661 C186.43221626 -0.11500022 187.15758437 -0.11452383 187.90493333 -0.114033 C193.00296912 -0.11187325 198.10090085 -0.12164937 203.19891357 -0.13624763 C210.06748478 -0.15564265 216.93560846 -0.14863738 223.80416107 -0.12404823 C226.32200654 -0.11904278 228.83988562 -0.12252308 231.35770416 -0.13519669 C234.80049769 -0.15115288 238.24184451 -0.13614974 241.68457031 -0.11352539 C243.17146142 -0.13127898 243.17146142 -0.13127898 244.68839073 -0.14939123 C252.54975021 -0.04476482 259.10570723 2.11335895 264.99596596 7.47510046 C273.06590445 15.85377271 273.28193478 24.67642952 273.22996521 35.77027893 C273.23414175 37.221839 273.23962102 38.67339581 273.24628502 40.12494659 C273.26071756 44.10080297 273.25650172 48.07645165 273.24911821 52.05231929 C273.24438313 56.34565972 273.25689973 60.63895544 273.26713562 64.93228149 C273.2843251 73.3400724 273.28516293 81.74778858 273.27992272 90.1555925 C273.27587832 96.9940406 273.27732779 103.83246665 273.28267097 110.6709137 C273.2834194 111.64491273 273.28416782 112.61891176 273.28493892 113.62242591 C273.28647045 115.60130295 273.28800879 117.58017997 273.28955389 119.559057 C273.30328069 138.11597521 273.29784107 156.67285126 273.28636868 175.22976851 C273.27644682 192.18342508 273.28935852 209.13697235 273.31330287 226.09061205 C273.33772672 243.51574515 273.34729301 260.94082742 273.34065014 278.36597729 C273.33716384 288.14179854 273.33935043 297.91753585 273.35690117 307.69334412 C273.37166472 316.01983914 273.37220507 324.3461912 273.35483026 332.67268354 C273.34634995 336.91571911 273.34409716 341.15849977 273.35948181 345.40152168 C273.37342946 349.29672899 273.36843829 353.19146544 273.34924258 357.0866462 C273.34551266 358.4850661 273.34831617 359.88352465 273.35885423 361.28190982 C273.48816677 379.77801843 269.00100737 395.68709564 256.04541016 409.30763245 C255.31837891 410.03595276 254.59134766 410.76427307 253.84228516 411.5146637 C253.30087891 412.06767151 252.75947266 412.62067932 252.20166016 413.19044495 C223.43177666 440.14404792 172.52059266 444.63873431 135.36425781 448.90382385 C134.49225235 449.00444122 133.62024689 449.10505859 132.72181702 449.20872498 C131.07134089 449.39797435 129.42050282 449.58410128 127.76927185 449.76664734 C124.64860037 450.12243733 121.83180805 450.51815607 118.84228516 451.5146637 C116.77550848 451.06014435 114.71012666 450.59822805 112.65283203 450.10255432 C107.53836221 449.03274514 102.33792461 448.58040155 97.14929199 447.99977112 C74.13698906 445.36955953 52.03566787 440.89083672 30.02978516 433.6396637 C29.28555298 433.39707825 28.5413208 433.1544928 27.77453613 432.90455627 C6.59956313 425.93980005 -14.73001113 416.26862649 -25.53271484 395.5146637 C-31.26578059 383.1433113 -32.30768131 371.93181225 -32.30488586 358.45281982 C-32.30818846 357.01022424 -32.31191485 355.56762957 -32.31602734 354.12503606 C-32.3260098 350.16960539 -32.32975803 346.21418989 -32.33241665 342.25874841 C-32.33633067 337.9893768 -32.34590793 333.72001707 -32.35462952 329.45065308 C-32.37435873 319.14717215 -32.38445375 308.84369028 -32.39335731 298.5401952 C-32.39774434 293.68553143 -32.40310992 288.83086874 -32.40834618 283.97620583 C-32.42535176 267.83576147 -32.43984692 251.69531778 -32.44709492 235.55486584 C-32.44900472 231.36983426 -32.45092507 227.18480268 -32.45288086 222.99977112 C-32.45360647 221.43957079 -32.45360647 221.43957079 -32.45434674 219.84785125 C-32.46265094 202.99031699 -32.48799744 186.1328536 -32.52046154 169.2753503 C-32.55353325 151.96102897 -32.57154361 134.64674368 -32.57473916 117.33239061 C-32.5769037 107.61374245 -32.58564467 97.89519778 -32.61120033 88.17658043 C-32.63290849 79.90223854 -32.64095701 71.6280253 -32.63123355 63.35365816 C-32.62668975 59.13363978 -32.6285798 54.91388683 -32.647995 50.69390488 C-32.66563314 46.82674247 -32.66462397 42.96003902 -32.6490977 39.0928717 C-32.64672266 37.69788647 -32.65103989 36.3028694 -32.66292635 34.90793278 C-32.75261776 23.68216485 -31.11576744 14.55183969 -23.18395424 6.19087595 C-16.44660027 0.61738089 -8.4106235 -0.06992105 0 0 Z M-20.40771484 15.0146637 C-23.25966484 19.08887798 -24.40793192 21.75026003 -24.4038105 26.77015305 C-24.4077926 27.84055289 -24.41177469 28.91095273 -24.41587746 30.01378894 C-24.41005178 31.1888768 -24.4042261 32.36396467 -24.39822388 33.57466125 C-24.39993273 34.82356242 -24.40164158 36.07246359 -24.40340221 37.35921025 C-24.40787939 40.82769917 -24.39986701 44.29606484 -24.38984609 47.76453805 C-24.38121921 51.5041073 -24.38413121 55.24366945 -24.38565063 58.98324585 C-24.38669997 65.46296082 -24.3804183 71.94263555 -24.36917496 78.42234039 C-24.35292949 87.79093112 -24.34771293 97.15950236 -24.34519897 106.52810565 C-24.34082037 121.72757483 -24.32750679 136.92702257 -24.30859375 152.1264801 C-24.29023922 166.89242953 -24.27608063 181.65837313 -24.26757812 196.42433167 C-24.26705268 197.33431442 -24.26652723 198.24429718 -24.26598586 199.18185517 C-24.26337581 203.74691433 -24.26084839 208.31197353 -24.25836205 212.87703276 C-24.23762441 250.75625822 -24.20239439 288.63545929 -24.15771484 326.5146637 C-21.17580602 328.09369501 -18.19228517 329.66965741 -15.20849609 331.24513245 C-13.95993835 331.90636108 -13.95993835 331.90636108 -12.68615723 332.58094788 C-1.19652004 338.64267384 10.29488855 344.19541146 22.60791016 348.3740387 C25.6201634 349.4363309 28.48961795 350.65104387 31.40478516 351.9521637 C40.24926558 355.70723015 49.58420127 358.01582416 58.84228516 360.5146637 C59.89440186 360.80687805 59.89440186 360.80687805 60.96777344 361.10499573 C65.56677308 362.38114582 70.18137686 363.49531433 74.84228516 364.5146637 C75.65842285 364.69803284 76.47456055 364.88140198 77.31542969 365.07032776 C119.60402728 374.26045873 164.63069066 367.22835245 204.84228516 352.5146637 C205.6345752 352.22897522 206.42686523 351.94328674 207.24316406 351.64894104 C217.91412431 347.78131867 228.38408396 343.50698527 238.77978516 338.9521637 C239.77308838 338.51750793 240.7663916 338.08285217 241.78979492 337.63502502 C247.33946815 335.17130576 252.80074036 332.56815185 258.22338867 329.83912659 C258.86361214 329.51793098 259.5038356 329.19673538 260.16345978 328.86580658 C261.72351423 328.08298046 263.2829635 327.29894848 264.84228516 326.5146637 C264.91094216 287.90602591 264.96380931 249.29739731 264.99548114 210.68871083 C264.99923329 206.13126468 265.00311626 201.57381865 265.00708008 197.01637268 C265.00786701 196.10906196 265.00865394 195.20175125 265.00946472 194.26694626 C265.02252091 179.5732419 265.04617594 164.87957272 265.07374354 150.18588924 C265.10179179 135.1103622 265.11846019 120.03485359 265.12455064 104.95930153 C265.12866829 95.65584598 265.14167658 86.35248988 265.16603456 77.04906494 C265.18188457 70.67055116 265.18668718 64.29208885 265.18278929 57.91355681 C265.1808666 54.23271204 265.1838273 50.55204116 265.19990158 46.87122726 C265.21720473 42.87985795 265.21125073 38.8888592 265.20304871 34.89746094 C265.21178723 33.73500255 265.22052575 32.57254415 265.22952908 31.37485975 C265.19109497 24.47136834 264.88279114 18.91407128 260.08837891 13.5537262 C259.49154297 13.08708557 258.89470703 12.62044495 258.27978516 12.1396637 C257.38066406 11.41649963 257.38066406 11.41649963 256.46337891 10.6787262 C253.64713089 8.65645654 251.89424504 8.38807903 248.47434616 8.38044262 C247.55096443 8.37598478 246.6275827 8.37152693 245.6762197 8.366934 C244.6550368 8.36711836 243.63385391 8.36730273 242.58172607 8.36749268 C241.50210924 8.36381599 240.42249241 8.3601393 239.31015992 8.3563512 C235.66819435 8.34527895 232.02625726 8.34146454 228.38427734 8.33766174 C225.78291228 8.3313998 223.18154811 8.32475325 220.58018494 8.31774902 C212.7559358 8.29797435 204.93168535 8.28791697 197.10741746 8.27902123 C193.42425411 8.27463983 189.7410922 8.26927262 186.05792999 8.26403236 C173.81654534 8.24701881 161.5751616 8.2325243 149.33376694 8.22528362 C146.15610503 8.22337368 142.97844313 8.22145335 139.80078125 8.21949768 C139.0109732 8.21901394 138.22116515 8.2185302 137.40742353 8.2180318 C124.6110702 8.20973028 111.81481031 8.18439192 99.01849779 8.151917 C85.8853995 8.11885871 72.75234871 8.10083596 59.61920857 8.09763938 C52.24356497 8.0954731 44.86805762 8.08670733 37.49245453 8.06117821 C30.5551399 8.03722186 23.61807442 8.03363782 16.68072701 8.04393959 C14.13217161 8.04443665 11.58360439 8.03806632 9.03508568 8.02438354 C5.56001956 8.00676775 2.08584455 8.01372083 -1.38922119 8.0269165 C-2.90761121 8.01046263 -2.90761121 8.01046263 -4.45667577 7.99367636 C-11.58745622 8.05920177 -15.51459975 9.57786915 -20.40771484 15.0146637 Z " fill="#144477" transform="translate(136.15771484375,29.485336303710938)"/>
<path d="M0 0 C1.875 1.125 1.875 1.125 3 3 C3.1875 6.1875 3.1875 6.1875 3 9 C3.54140625 9.06058594 4.0828125 9.12117188 4.640625 9.18359375 C8.01143203 10.34998227 10.21740133 12.64622804 12.75 15.0625 C13.25660156 15.53494141 13.76320313 16.00738281 14.28515625 16.49414062 C15.52949613 17.65630711 16.76558064 18.82730161 18 20 C22.3769202 18.10001873 25.35382022 15.02283805 28.78125 11.77734375 C30.95905632 10.03279819 32.27838423 9.40205687 35 9 C34.9175 8.2575 34.835 7.515 34.75 6.75 C35 4 35 4 36.5625 1.625 C39 0 39 0 42.625 0.0625 C46 1 46 1 48 4 C47.625 7.1875 47.625 7.1875 47 10 C46.01 10.33 45.02 10.66 44 11 C44 11.66 44 12.32 44 13 C44.60457031 13.04382813 45.20914063 13.08765625 45.83203125 13.1328125 C48 14 48 14 49.44921875 16.6171875 C49.85785156 17.69226563 50.26648438 18.76734375 50.6875 19.875 C51.10386719 20.94492188 51.52023437 22.01484375 51.94921875 23.1171875 C52.66039351 25.06829148 53.34329791 27.02989374 54 29 C56.09139842 28.76000346 58.18268738 28.51901767 60.2734375 28.2734375 C62.1701591 28.08322187 64.07269262 27.94650614 65.9765625 27.8515625 C67.44222656 27.77035156 67.44222656 27.77035156 68.9375 27.6875 C70.31228516 27.63142578 70.31228516 27.63142578 71.71484375 27.57421875 C74.1688267 27.23658023 74.1688267 27.23658023 75.25390625 25.01953125 C75.62322266 24.01986328 75.62322266 24.01986328 76 23 C77 22 77 22 79.875 21.75 C83 22 83 22 84.875 23.125 C86.52854531 25.88090884 86.39365568 27.85075452 86 31 C84.625 32.875 84.625 32.875 83 34 C82.34 34 81.68 34 81 34 C80.92652344 35.2684375 80.92652344 35.2684375 80.8515625 36.5625 C80.43075986 42.94709185 79.80649237 48.85792595 78 55 C78.556875 55.10957031 79.11375 55.21914062 79.6875 55.33203125 C85.03341031 56.44275248 89.93063816 57.97225526 95 60 C95 61.32 95 62.64 95 64 C95.66 64 96.32 64 97 64 C97 63.34 97 62.68 97 62 C100.04983996 60.47508002 102.6423369 60.76437452 106 61 C108 62.125 108 62.125 109 64 C108.9276293 67.4737938 108.64541231 69.30848681 106.25 71.875 C103.63695229 73.18152386 101.88466476 73.24038873 99 73 C98.89365234 74.07314453 98.89365234 74.07314453 98.78515625 75.16796875 C97.77620031 78.80723769 96.0209574 80.58349571 93.4375 83.3125 C92.61121094 84.19550781 91.78492188 85.07851562 90.93359375 85.98828125 C90.29550781 86.65214844 89.65742188 87.31601563 89 88 C90.60995246 91.61382946 92.7978592 94.53063184 95.25 97.625 C95.99765625 98.58664063 96.7453125 99.54828125 97.515625 100.5390625 C100.27853091 103.27590326 102.28339533 104.02843944 106 105 C107.9375 106.1875 107.9375 106.1875 109 108 C108.875 111.5625 108.875 111.5625 108 115 C105 117 105 117 103.08984375 116.8359375 C102.37957031 116.68382812 101.66929687 116.53171875 100.9375 116.375 C95.18235033 115.55953091 91.14468734 117.64093017 86 120 C84.00697876 120.6872487 82.01032877 121.36515933 80 122 C80.2165625 123.9490625 80.2165625 123.9490625 80.4375 125.9375 C80.52515625 126.7521875 80.6128125 127.566875 80.703125 128.40625 C80.89897493 130.11735992 81.11728129 131.8260682 81.359375 133.53125 C81.46765625 134.3253125 81.5759375 135.119375 81.6875 135.9375 C81.84798828 137.03384766 81.84798828 137.03384766 82.01171875 138.15234375 C82 140 82 140 80 142 C80.78375 142.45375 81.5675 142.9075 82.375 143.375 C85 145 85 145 87 147 C86.54545455 152.45454545 86.54545455 152.45454545 84 155 C80.625 155.5 80.625 155.5 77 155 C74.5625 152 74.5625 152 73 149 C72.34 149.66 71.68 150.32 71 151 C64.90913233 150.56493802 58.96784279 149.25960616 53 148 C52.81824219 148.61746094 52.63648438 149.23492187 52.44921875 149.87109375 C50.74279553 155.62042737 48.93345274 161.32305366 47 167 C47.33 167.33 47.66 167.66 48 168 C48.39838349 171.58545144 48.40131007 173.3980349 46.375 176.4375 C44 178 44 178 40.875 177.875 C38 177 38 177 36 175 C35.875 171.375 35.875 171.375 36 168 C35.45859375 167.92910156 34.9171875 167.85820312 34.359375 167.78515625 C31.03867463 166.68008874 28.91255435 164.68799237 26.25 162.4375 C24.77273438 161.19806641 24.77273438 161.19806641 23.265625 159.93359375 C22.51796875 159.29550781 21.7703125 158.65742188 21 158 C16.6230798 159.89998127 13.64617978 162.97716195 10.21875 166.22265625 C8.04094368 167.96720181 6.72161577 168.59794313 4 169 C4.0825 169.7425 4.165 170.485 4.25 171.25 C4 174 4 174 2.3125 176.3125 C0 178 0 178 -2.5625 178.4375 C-5 178 -5 178 -6.8125 176.9375 C-8.646921 173.94449731 -8.31107576 171.42183337 -8 168 C-7.34 167.34 -6.68 166.68 -6 166 C-6.61359375 165.46632812 -7.2271875 164.93265625 -7.859375 164.3828125 C-10.33359097 161.62866699 -11.16014535 159.39540352 -12.25 155.875 C-12.58515625 154.82054687 -12.9203125 153.76609375 -13.265625 152.6796875 C-14 150 -14 150 -14 148 C-14.76183594 148.144375 -15.52367187 148.28875 -16.30859375 148.4375 C-22.65247896 149.57797374 -28.55770944 150.21474302 -35 150 C-35.103125 150.61875 -35.20625 151.2375 -35.3125 151.875 C-36 154 -36 154 -39 156 C-42.0625 155.8125 -42.0625 155.8125 -45 155 C-47.31282587 151.53076119 -47.42478586 150.07794425 -47 146 C-45.625 144.125 -45.625 144.125 -44 143 C-43.34 143 -42.68 143 -42 143 C-41.95101562 142.2265625 -41.90203125 141.453125 -41.8515625 140.65625 C-41.41252377 134.53998633 -40.69992464 128.89307209 -39 123 C-39.70640625 122.87238281 -40.4128125 122.74476563 -41.140625 122.61328125 C-44.09674584 121.97924987 -46.88717497 121.1585393 -49.75 120.1875 C-50.71421875 119.87167969 -51.6784375 119.55585938 -52.671875 119.23046875 C-55 118 -55 118 -55.828125 115.86328125 C-55.88484375 115.24839844 -55.9415625 114.63351563 -56 114 C-56.515625 114.495 -57.03125 114.99 -57.5625 115.5 C-60.85639847 117.52701444 -63.20122401 117.35173852 -67 117 C-69 115 -69 115 -69.3125 111.5625 C-69 108 -69 108 -67.9375 106 C-64.86664787 104.41504406 -62.27813225 105.31963293 -59 106 C-59.268125 105.28972656 -59.53625 104.57945312 -59.8125 103.84765625 C-60 101 -60 101 -57.875 98.24609375 C-56.93099016 97.29545463 -55.97193992 96.35956405 -55 95.4375 C-51.3682229 92.29011962 -51.3682229 92.29011962 -49.90234375 87.9765625 C-51.98097415 84.23354832 -55.11512787 81.40162241 -58.06640625 78.33984375 C-60 76 -60 76 -60 73 C-60.9075 73.0825 -61.815 73.165 -62.75 73.25 C-66 73 -66 73 -68.4375 71.375 C-70 69 -70 69 -69.875 65.875 C-69 63 -69 63 -67 61 C-62.66356399 60.68462284 -60.67346771 60.55102153 -57 63 C-57 62.34 -57 61.68 -57 61 C-54.73117913 60.16080602 -52.46022973 59.32848276 -50.1875 58.5 C-49.54490234 58.26152344 -48.90230469 58.02304688 -48.24023438 57.77734375 C-45.35066261 56.72931254 -43.09923939 56 -40 56 C-40.23976562 54.73542969 -40.47953125 53.47085938 -40.7265625 52.16796875 C-41.02668281 50.50792829 -41.32612689 48.84776546 -41.625 47.1875 C-41.78484375 46.35412109 -41.9446875 45.52074219 -42.109375 44.66210938 C-42.25117188 43.85966797 -42.39296875 43.05722656 -42.5390625 42.23046875 C-42.67521973 41.49207764 -42.81137695 40.75368652 -42.95166016 39.99291992 C-43 38 -43 38 -41 35 C-41.928125 34.814375 -41.928125 34.814375 -42.875 34.625 C-45 34 -45 34 -47 32 C-47.55416667 25.90416667 -47.55416667 25.90416667 -45.8125 23.0625 C-43.29445572 21.58640508 -41.87523324 21.50910652 -39 22 C-36.6875 23.8125 -36.6875 23.8125 -35 26 C-35 26.99 -35 27.98 -35 29 C-34.01 28.34 -33.02 27.68 -32 27 C-25.88374191 26.86963571 -19.85467545 28.37370126 -14 30 C-13.87625 29.30261719 -13.7525 28.60523437 -13.625 27.88671875 C-12.95025481 24.77023939 -12.02054815 21.83287229 -11 18.8125 C-10.649375 17.76707031 -10.29875 16.72164062 -9.9375 15.64453125 C-9 13 -9 13 -8 11 C-8.495 10.01 -8.495 10.01 -9 9 C-9.44720497 3.74534161 -9.44720497 3.74534161 -7.875 1.125 C-5.11909116 -0.52854531 -3.14924548 -0.39365568 0 0 Z " fill="#A31019" transform="translate(237,61)"/>
<path d="M0 0 C1.875 1.125 1.875 1.125 3 3 C3.1875 6.1875 3.1875 6.1875 3 9 C3.54140625 9.06058594 4.0828125 9.12117188 4.640625 9.18359375 C8.01143203 10.34998227 10.21740133 12.64622804 12.75 15.0625 C13.25660156 15.53494141 13.76320313 16.00738281 14.28515625 16.49414062 C15.52949613 17.65630711 16.76558064 18.82730161 18 20 C22.3769202 18.10001873 25.35382022 15.02283805 28.78125 11.77734375 C30.95905632 10.03279819 32.27838423 9.40205687 35 9 C34.9175 8.2575 34.835 7.515 34.75 6.75 C35 4 35 4 36.5625 1.625 C39 0 39 0 42.625 0.0625 C46 1 46 1 48 4 C47.625 7.1875 47.625 7.1875 47 10 C46.01 10.33 45.02 10.66 44 11 C44 11.66 44 12.32 44 13 C44.60457031 13.04382813 45.20914063 13.08765625 45.83203125 13.1328125 C48 14 48 14 49.44921875 16.6171875 C49.85785156 17.69226563 50.26648438 18.76734375 50.6875 19.875 C51.10386719 20.94492188 51.52023437 22.01484375 51.94921875 23.1171875 C52.66039351 25.06829148 53.34329791 27.02989374 54 29 C56.09139842 28.76000346 58.18268738 28.51901767 60.2734375 28.2734375 C62.1701591 28.08322187 64.07269262 27.94650614 65.9765625 27.8515625 C67.44222656 27.77035156 67.44222656 27.77035156 68.9375 27.6875 C70.31228516 27.63142578 70.31228516 27.63142578 71.71484375 27.57421875 C74.1688267 27.23658023 74.1688267 27.23658023 75.25390625 25.01953125 C75.62322266 24.01986328 75.62322266 24.01986328 76 23 C77 22 77 22 79.875 21.75 C83 22 83 22 84.875 23.125 C86.52854531 25.88090884 86.39365568 27.85075452 86 31 C84.625 32.875 84.625 32.875 83 34 C82.34 34 81.68 34 81 34 C80.92652344 35.2684375 80.92652344 35.2684375 80.8515625 36.5625 C80.43075986 42.94709185 79.80649237 48.85792595 78 55 C78.556875 55.10957031 79.11375 55.21914062 79.6875 55.33203125 C85.03341031 56.44275248 89.93063816 57.97225526 95 60 C95 61.32 95 62.64 95 64 C95.66 64 96.32 64 97 64 C97 63.34 97 62.68 97 62 C100.04983996 60.47508002 102.6423369 60.76437452 106 61 C108 62.125 108 62.125 109 64 C108.9276293 67.4737938 108.64541231 69.30848681 106.25 71.875 C103.63695229 73.18152386 101.88466476 73.24038873 99 73 C98.89365234 74.07314453 98.89365234 74.07314453 98.78515625 75.16796875 C97.77620031 78.80723769 96.0209574 80.58349571 93.4375 83.3125 C92.61121094 84.19550781 91.78492188 85.07851562 90.93359375 85.98828125 C90.29550781 86.65214844 89.65742188 87.31601563 89 88 C90.60995246 91.61382946 92.7978592 94.53063184 95.25 97.625 C95.99765625 98.58664063 96.7453125 99.54828125 97.515625 100.5390625 C100.27853091 103.27590326 102.28339533 104.02843944 106 105 C107.9375 106.1875 107.9375 106.1875 109 108 C108.875 111.5625 108.875 111.5625 108 115 C105 117 105 117 103.08984375 116.8359375 C102.37957031 116.68382812 101.66929687 116.53171875 100.9375 116.375 C95.18235033 115.55953091 91.14468734 117.64093017 86 120 C84.00697876 120.6872487 82.01032877 121.36515933 80 122 C80.2165625 123.9490625 80.2165625 123.9490625 80.4375 125.9375 C80.52515625 126.7521875 80.6128125 127.566875 80.703125 128.40625 C80.89897493 130.11735992 81.11728129 131.8260682 81.359375 133.53125 C81.46765625 134.3253125 81.5759375 135.119375 81.6875 135.9375 C81.84798828 137.03384766 81.84798828 137.03384766 82.01171875 138.15234375 C82 140 82 140 80 142 C80.78375 142.45375 81.5675 142.9075 82.375 143.375 C85 145 85 145 87 147 C86.54545455 152.45454545 86.54545455 152.45454545 84 155 C80.625 155.5 80.625 155.5 77 155 C74.5625 152 74.5625 152 73 149 C72.34 149.66 71.68 150.32 71 151 C64.90913233 150.56493802 58.96784279 149.25960616 53 148 C52.81824219 148.61746094 52.63648438 149.23492187 52.44921875 149.87109375 C50.74279553 155.62042737 48.93345274 161.32305366 47 167 C47.33 167.33 47.66 167.66 48 168 C48.39838349 171.58545144 48.40131007 173.3980349 46.375 176.4375 C44 178 44 178 40.875 177.875 C38 177 38 177 36 175 C35.875 171.375 35.875 171.375 36 168 C35.45859375 167.92910156 34.9171875 167.85820312 34.359375 167.78515625 C31.03867463 166.68008874 28.91255435 164.68799237 26.25 162.4375 C24.77273438 161.19806641 24.77273438 161.19806641 23.265625 159.93359375 C22.51796875 159.29550781 21.7703125 158.65742188 21 158 C16.6230798 159.89998127 13.64617978 162.97716195 10.21875 166.22265625 C8.04094368 167.96720181 6.72161577 168.59794313 4 169 C4.0825 169.7425 4.165 170.485 4.25 171.25 C4 174 4 174 2.3125 176.3125 C0 178 0 178 -2.5625 178.4375 C-5 178 -5 178 -6.8125 176.9375 C-8.646921 173.94449731 -8.31107576 171.42183337 -8 168 C-7.34 167.34 -6.68 166.68 -6 166 C-6.61359375 165.46632812 -7.2271875 164.93265625 -7.859375 164.3828125 C-10.33359097 161.62866699 -11.16014535 159.39540352 -12.25 155.875 C-12.58515625 154.82054687 -12.9203125 153.76609375 -13.265625 152.6796875 C-14 150 -14 150 -14 148 C-14.76183594 148.144375 -15.52367187 148.28875 -16.30859375 148.4375 C-22.65247896 149.57797374 -28.55770944 150.21474302 -35 150 C-35.103125 150.61875 -35.20625 151.2375 -35.3125 151.875 C-36 154 -36 154 -39 156 C-42.0625 155.8125 -42.0625 155.8125 -45 155 C-47.31282587 151.53076119 -47.42478586 150.07794425 -47 146 C-45.625 144.125 -45.625 144.125 -44 143 C-43.34 143 -42.68 143 -42 143 C-41.95101562 142.2265625 -41.90203125 141.453125 -41.8515625 140.65625 C-41.41252377 134.53998633 -40.69992464 128.89307209 -39 123 C-39.70640625 122.87238281 -40.4128125 122.74476563 -41.140625 122.61328125 C-44.09674584 121.97924987 -46.88717497 121.1585393 -49.75 120.1875 C-50.71421875 119.87167969 -51.6784375 119.55585938 -52.671875 119.23046875 C-55 118 -55 118 -55.828125 115.86328125 C-55.88484375 115.24839844 -55.9415625 114.63351563 -56 114 C-56.515625 114.495 -57.03125 114.99 -57.5625 115.5 C-60.85639847 117.52701444 -63.20122401 117.35173852 -67 117 C-69 115 -69 115 -69.3125 111.5625 C-69 108 -69 108 -67.9375 106 C-64.86664787 104.41504406 -62.27813225 105.31963293 -59 106 C-59.268125 105.28972656 -59.53625 104.57945312 -59.8125 103.84765625 C-60 101 -60 101 -57.875 98.24609375 C-56.93099016 97.29545463 -55.97193992 96.35956405 -55 95.4375 C-51.3682229 92.29011962 -51.3682229 92.29011962 -49.90234375 87.9765625 C-51.98097415 84.23354832 -55.11512787 81.40162241 -58.06640625 78.33984375 C-60 76 -60 76 -60 73 C-60.9075 73.0825 -61.815 73.165 -62.75 73.25 C-66 73 -66 73 -68.4375 71.375 C-70 69 -70 69 -69.875 65.875 C-69 63 -69 63 -67 61 C-62.66356399 60.68462284 -60.67346771 60.55102153 -57 63 C-57 62.34 -57 61.68 -57 61 C-54.73117913 60.16080602 -52.46022973 59.32848276 -50.1875 58.5 C-49.54490234 58.26152344 -48.90230469 58.02304688 -48.24023438 57.77734375 C-45.35066261 56.72931254 -43.09923939 56 -40 56 C-40.23976562 54.73542969 -40.47953125 53.47085938 -40.7265625 52.16796875 C-41.02668281 50.50792829 -41.32612689 48.84776546 -41.625 47.1875 C-41.78484375 46.35412109 -41.9446875 45.52074219 -42.109375 44.66210938 C-42.25117188 43.85966797 -42.39296875 43.05722656 -42.5390625 42.23046875 C-42.67521973 41.49207764 -42.81137695 40.75368652 -42.95166016 39.99291992 C-43 38 -43 38 -41 35 C-41.928125 34.814375 -41.928125 34.814375 -42.875 34.625 C-45 34 -45 34 -47 32 C-47.55416667 25.90416667 -47.55416667 25.90416667 -45.8125 23.0625 C-43.29445572 21.58640508 -41.87523324 21.50910652 -39 22 C-36.6875 23.8125 -36.6875 23.8125 -35 26 C-35 26.99 -35 27.98 -35 29 C-34.01 28.34 -33.02 27.68 -32 27 C-25.88374191 26.86963571 -19.85467545 28.37370126 -14 30 C-13.87625 29.30261719 -13.7525 28.60523437 -13.625 27.88671875 C-12.95025481 24.77023939 -12.02054815 21.83287229 -11 18.8125 C-10.649375 17.76707031 -10.29875 16.72164062 -9.9375 15.64453125 C-9 13 -9 13 -8 11 C-8.495 10.01 -8.495 10.01 -9 9 C-9.44720497 3.74534161 -9.44720497 3.74534161 -7.875 1.125 C-5.11909116 -0.52854531 -3.14924548 -0.39365568 0 0 Z M8 18 C9.44950455 21.7910119 11.15172566 25.3874638 13 29 C12.01 29.66 11.02 30.32 10 31 C10.19916016 31.97839844 10.19916016 31.97839844 10.40234375 32.9765625 C11.34482822 37.6408287 12.25768703 42.29868454 13 47 C12.01 47 11.02 47 10 47 C8.68 43.7 7.36 40.4 6 37 C4.96840374 40.09478879 5.02517138 41.52631393 5.4375 44.6875 C5.59025391 45.89986328 5.59025391 45.89986328 5.74609375 47.13671875 C5.82988281 47.75160156 5.91367188 48.36648437 6 49 C5.01 49 4.02 49 3 49 C2.80664062 48.00097656 2.61328125 47.00195312 2.4140625 45.97265625 C2.15367187 44.68230469 1.89328125 43.39195313 1.625 42.0625 C1.36976563 40.77472656 1.11453125 39.48695312 0.8515625 38.16015625 C0.57054687 37.11730469 0.28953125 36.07445312 0 35 C-2.25308553 33.60229416 -2.25308553 33.60229416 -6 35 C-6 31.04 -6 27.08 -6 23 C-8.19117773 23.82201984 -8.19117773 23.82201984 -8.8515625 26.06640625 C-9.23441406 27.30197266 -9.23441406 27.30197266 -9.625 28.5625 C-10.07875 30.026875 -10.5325 31.49125 -11 33 C-16.28 33 -21.56 33 -27 33 C-22.96970647 39.21816716 -18.46636925 43.25213624 -12.49536133 47.49755859 C-9.44659393 49.70210002 -7.28885801 51.3978071 -6 55 C-7.671875 55.74609375 -7.671875 55.74609375 -10 56 C-12.578125 54.34765625 -12.578125 54.34765625 -15.25 52.0625 C-16.14203125 51.31097656 -17.0340625 50.55945313 -17.953125 49.78515625 C-18.62859375 49.19605469 -19.3040625 48.60695313 -20 48 C-20.66 48.33 -21.32 48.66 -22 49 C-21.4225 49.67546875 -20.845 50.3509375 -20.25 51.046875 C-19.5075 51.93890625 -18.765 52.8309375 -18 53.75 C-17.2575 54.63171875 -16.515 55.5134375 -15.75 56.421875 C-14 59 -14 59 -14 63 C-17.24052354 62.73058003 -18.11970881 61.87308919 -20.40234375 59.453125 C-21.25699876 58.39308778 -22.10178832 57.32503493 -22.9375 56.25 C-28.99759022 48.50747692 -28.99759022 48.50747692 -37 43 C-36.67 47.95 -36.34 52.9 -36 58 C-41.94 60.475 -41.94 60.475 -48 63 C-48 63.33 -48 63.66 -48 64 C-43.38 64 -38.76 64 -34 64 C-34.33 65.65 -34.66 67.3 -35 69 C-33.50146484 69.38091797 -33.50146484 69.38091797 -31.97265625 69.76953125 C-30.6690937 70.11652272 -29.36571765 70.4642154 -28.0625 70.8125 C-27.40314453 70.97814453 -26.74378906 71.14378906 -26.06445312 71.31445312 C-24.16015625 71.83203125 -24.16015625 71.83203125 -21 73 C-20.67 73.99 -20.34 74.98 -20 76 C-24.62 75.34 -29.24 74.68 -34 74 C-34 74.66 -34 75.32 -34 76 C-32.56445975 76.50559908 -31.1264798 77.0042749 -29.6875 77.5 C-28.88699219 77.7784375 -28.08648437 78.056875 -27.26171875 78.34375 C-24.91230578 79.13933107 -24.91230578 79.13933107 -22 79 C-22 80.32 -22 81.64 -22 83 C-27.33333333 81.66666667 -32.66666667 80.33333333 -38 79 C-38.33 80.32 -38.66 81.64 -39 83 C-39.68707031 82.6390625 -40.37414062 82.278125 -41.08203125 81.90625 C-41.98308594 81.4421875 -42.88414062 80.978125 -43.8125 80.5 C-44.70582031 80.0359375 -45.59914062 79.571875 -46.51953125 79.09375 C-49.00568026 77.79826859 -49.00568026 77.79826859 -52 78 C-51.4946875 78.51949219 -50.989375 79.03898437 -50.46875 79.57421875 C-49.8190625 80.27160156 -49.169375 80.96898437 -48.5 81.6875 C-47.8503125 82.37199219 -47.200625 83.05648437 -46.53125 83.76171875 C-44.65103539 86.51009368 -44.43516857 87.73204672 -45 91 C-46.53125 93.45703125 -46.53125 93.45703125 -48.5 95.8125 C-49.1496875 96.60269531 -49.799375 97.39289063 -50.46875 98.20703125 C-50.9740625 98.79871094 -51.479375 99.39039063 -52 100 C-44.94410157 102.35196614 -37.18115017 97.94534122 -30.796875 95.0234375 C-27.97459788 93.99070481 -25.97457562 93.79373381 -23 94 C-23.12109375 95.828125 -23.12109375 95.828125 -24 98 C-26.72265625 99.484375 -26.72265625 99.484375 -30.0625 100.75 C-31.16722656 101.17796875 -32.27195312 101.6059375 -33.41015625 102.046875 C-34.26480469 102.36140625 -35.11945313 102.6759375 -36 103 C-32.53777385 104.06723961 -29.35960734 104.10173486 -25.75 104.0625 C-24.13351563 104.04896484 -24.13351563 104.04896484 -22.484375 104.03515625 C-21.25460938 104.01775391 -21.25460938 104.01775391 -20 104 C-20 104.99 -20 105.98 -20 107 C-20.63502441 107.11069824 -21.27004883 107.22139648 -21.92431641 107.33544922 C-24.8253933 107.8439181 -27.72518313 108.35939574 -30.625 108.875 C-32.12353516 109.13603516 -32.12353516 109.13603516 -33.65234375 109.40234375 C-38.58515152 110.28436898 -43.29466239 111.21743183 -48 113 C-48 113.66 -48 114.32 -48 115 C-43.71 116.98 -39.42 118.96 -35 121 C-35.33 125.29 -35.66 129.58 -36 134 C-34.68 132.35 -33.36 130.7 -32 129 C-30.66666667 127.33333333 -29.33333333 125.66666667 -28 124 C-26.515 124.99 -26.515 124.99 -25 126 C-24.31292969 125.28972656 -23.62585938 124.57945312 -22.91796875 123.84765625 C-22.01691406 122.92855469 -21.11585938 122.00945312 -20.1875 121.0625 C-19.29417969 120.14597656 -18.40085938 119.22945313 -17.48046875 118.28515625 C-15 116 -15 116 -12 115 C-13.27721526 119.99275057 -15.17330957 122.57611908 -19 126 C-18.67 126.66 -18.34 127.32 -18 128 C-17.18595703 127.25943359 -17.18595703 127.25943359 -16.35546875 126.50390625 C-15.64003906 125.86324219 -14.92460937 125.22257812 -14.1875 124.5625 C-13.47980469 123.92441406 -12.77210938 123.28632813 -12.04296875 122.62890625 C-10 121 -10 121 -7 120 C-8.670837 125.09207468 -11.4567977 127.49662287 -15.41796875 130.9375 C-15.94003906 131.618125 -16.46210938 132.29875 -17 133 C-16.67 134.65 -16.34 136.3 -16 138 C-19.3 139.98 -22.6 141.96 -26 144 C-24.03288968 145.23936375 -24.03288968 145.23936375 -21.8125 144.5625 C-18.49609847 143.89921969 -15.37356857 143.9338516 -12 144 C-10.02 147.96 -8.04 151.92 -6 156 C-1.38119131 151.38119131 -1.23154347 144.87121941 -0.375 138.6875 C-0.2409375 137.75615234 -0.106875 136.82480469 0.03125 135.86523438 C0.35973711 133.57755629 0.68246817 131.28921996 1 129 C2.32 129 3.64 129 5 129 C4.67 134.28 4.34 139.56 4 145 C7.02952396 143.48523802 7.37093771 141.14631984 8.625 138.0625 C9.07101563 136.98097656 9.51703125 135.89945312 9.9765625 134.78515625 C11.11497072 132.18166186 11.11497072 132.18166186 11 130 C12.98 130.495 12.98 130.495 15 131 C14.32061727 136.51998467 12.3869434 141.22166641 10.171875 146.2578125 C8.22770561 150.87044967 7.44266903 155.00890671 7 160 C9.81019835 158.76351272 11.99373797 157.21328565 14.375 155.3125 C16.99260848 153.42759817 17.77866835 153.00885327 21.125 152.875 C24.65251521 154.25533204 26.53062819 156.16748528 29 159 C29.66 158.67 30.32 158.34 31 158 C29.02 154.37 27.04 150.74 25 147 C26.32 146.67 27.64 146.34 29 146 C28.40984815 140.49191603 27.43336231 135.35121931 26 130 C27.32 130 28.64 130 30 130 C30.99 133.63 31.98 137.26 33 141 C33.33 141 33.66 141 34 141 C33.67 136.71 33.34 132.42 33 128 C34.485 128.495 34.485 128.495 36 129 C36.87987606 131.38066801 37.57258894 133.61481901 38.1875 136.0625 C38.36474609 136.72572266 38.54199219 137.38894531 38.72460938 138.07226562 C39.16105196 139.71187426 39.58200219 141.35559238 40 143 C41.65 142.67 43.3 142.34 45 142 C45 146.29 45 150.58 45 155 C47.15266842 152.84733158 47.93474462 151.15226256 49.125 148.375 C49.74375 146.93125 50.3625 145.4875 51 144 C55.95 144.33 60.9 144.66 66 145 C62.05800575 137.11601151 55.39602192 132.6762406 48.16015625 127.89453125 C47.44730469 127.26933594 46.73445313 126.64414063 46 126 C46 124.68 46 123.36 46 122 C51.02692063 122.45699278 54.14896261 124.99241748 58 128 C58.32405931 124.73788327 58.32405931 124.73788327 55.5 122.0625 C53 119 53 119 53 115 C55.65251197 115.09113513 57.42400897 115.43110708 59.34716797 117.33056641 C60.76569662 119.12329223 62.11335198 120.94895363 63.4375 122.8125 C64.34376816 124.075587 65.25905072 125.3322589 66.18359375 126.58203125 C66.58118896 127.14124268 66.97878418 127.7004541 67.38842773 128.27661133 C69.49367794 130.65970137 69.49367794 130.65970137 75 134 C75 128.72 75 123.44 75 118 C77.475 117.505 77.475 117.505 80 117 C82.00744615 116.35610218 84.00945124 115.69437747 86 115 C86 114.67 86 114.34 86 114 C81.71 114 77.42 114 73 114 C73.33 112.02 73.66 110.04 74 108 C69.38 107.01 64.76 106.02 60 105 C60 104.01 60 103.02 60 102 C64.29 102.33 68.58 102.66 73 103 C70.77174356 100.77174356 69.34238372 100.30760631 66.375 99.375 C65.55773437 99.11460937 64.74046875 98.85421875 63.8984375 98.5859375 C63.27195312 98.39257812 62.64546875 98.19921875 62 98 C62 97.01 62 96.02 62 95 C62.90363281 95.2165625 63.80726563 95.433125 64.73828125 95.65625 C65.91777344 95.9346875 67.09726562 96.213125 68.3125 96.5 C69.48425781 96.7784375 70.65601563 97.056875 71.86328125 97.34375 C74.95529844 98.10239084 74.95529844 98.10239084 78 98 C78 96.68 78 95.36 78 94 C82.29 96.31 86.58 98.62 91 101 C89.21565559 96.95783064 89.21565559 96.95783064 86.3125 94.125 C84 91 84 91 83.8125 88.0625 C85.20252835 84.47769004 87.08632284 82.26981802 89.72265625 79.515625 C91.21481304 78.07546504 91.21481304 78.07546504 91 76 C83.02741612 76.9436936 76.28758854 79.38523798 69.06640625 82.7578125 C66 84 66 84 62 84 C62 82.68 62 81.36 62 80 C62.92683594 79.66226563 63.85367188 79.32453125 64.80859375 78.9765625 C66.00613281 78.53054687 67.20367187 78.08453125 68.4375 77.625 C69.63246094 77.18414062 70.82742188 76.74328125 72.05859375 76.2890625 C75.10196898 75.32914764 75.10196898 75.32914764 76 73 C67.585 73.495 67.585 73.495 59 74 C59.33 72.68 59.66 71.36 60 70 C60.56920166 69.92483154 61.13840332 69.84966309 61.72485352 69.7722168 C64.33891314 69.42100314 66.95059376 69.05437153 69.5625 68.6875 C70.45775391 68.56955078 71.35300781 68.45160156 72.27539062 68.33007812 C77.66318235 67.56039359 82.10705305 66.39613452 87 64 C83.2440786 60.57068046 78.76533255 59.43570917 74 58 C74.52537724 52.9697924 75.10594786 47.98114761 76 43 C75.34 43 74.68 43 74 43 C73.16151196 44.45537568 72.32936066 45.91440373 71.5 47.375 C70.80390625 48.59316406 70.80390625 48.59316406 70.09375 49.8359375 C68.84964141 51.89336874 68.84964141 51.89336874 69 54 C68.01 54 67.02 54 66 54 C66 53.34 66 52.68 66 52 C62.17738906 52.5365068 60.8421743 54.01905089 58.5 57 C56.1578257 59.98094911 54.82261094 61.4634932 51 62 C52.3937282 57.56541027 54.60582235 55.12621626 58 52 C57.67 51.34 57.34 50.68 57 50 C56.54109375 50.42152344 56.0821875 50.84304687 55.609375 51.27734375 C54.99578125 51.82519531 54.3821875 52.37304688 53.75 52.9375 C53.14671875 53.48277344 52.5434375 54.02804688 51.921875 54.58984375 C49.91532695 56.06212799 48.42997551 56.57529189 46 57 C47.37031105 51.34746692 51.67689413 48.4886459 56 45 C55.67 43.35 55.34 41.7 55 40 C58.3 38.02 61.6 36.04 65 34 C61.57310364 32.85770121 59.38897782 33.09138924 55.8125 33.4375 C54.72582031 33.53933594 53.63914062 33.64117187 52.51953125 33.74609375 C51.68808594 33.82988281 50.85664063 33.91367188 50 34 C49.80664062 33.39671875 49.61328125 32.7934375 49.4140625 32.171875 C49.02347656 30.97304687 49.02347656 30.97304687 48.625 29.75 C48.36976563 28.96109375 48.11453125 28.1721875 47.8515625 27.359375 C47.04826333 25.13372042 46.10288338 23.09068328 45 21 C41.58661239 24.41338761 40.77955966 28.40598978 40.1484375 33.08203125 C40.01953125 34.01337891 39.890625 34.94472656 39.7578125 35.90429688 C39.56832031 37.34385742 39.56832031 37.34385742 39.375 38.8125 C39.2409375 39.79154297 39.106875 40.77058594 38.96875 41.77929688 C38.64010038 44.18548162 38.31737913 46.59230719 38 49 C36.68 49 35.36 49 34 49 C34.33 43.72 34.66 38.44 35 33 C31.94616796 34.52691602 31.61913497 36.95216256 30.375 40.0625 C29.70597656 41.71958984 29.70597656 41.71958984 29.0234375 43.41015625 C28.68570313 44.26480469 28.34796875 45.11945313 28 46 C26.68 46 25.36 46 24 46 C24.5752852 41.20838402 26.01182339 37.47844585 28.0625 33.125 C30.45471924 27.86378569 31.69492738 23.79106153 31 18 C30.40832031 18.42152344 29.81664062 18.84304687 29.20703125 19.27734375 C28.02173828 20.09912109 28.02173828 20.09912109 26.8125 20.9375 C26.03519531 21.48277344 25.25789063 22.02804688 24.45703125 22.58984375 C21.81290115 24.10738105 20.05189038 24.88392176 17 25 C14.796875 23.56640625 14.796875 23.56640625 12.75 21.5625 C10.68704402 19.15431086 10.68704402 19.15431086 8 18 Z " fill="#FBF6F6" transform="translate(237,61)"/>
<path d="M0 0 C1.65200339 -0.00679667 1.65200339 -0.00679667 3.33738059 -0.01373065 C7.02905541 -0.02639439 10.72058308 -0.02475298 14.41227722 -0.02310181 C17.05862985 -0.02908581 19.70497094 -0.03583446 22.35131836 -0.04345703 C28.79451001 -0.06005386 35.23766505 -0.06556598 41.68087629 -0.06668179 C46.91950598 -0.06763288 52.15812362 -0.07174624 57.3967495 -0.07808304 C72.25684843 -0.09569181 87.11691849 -0.10492247 101.97702793 -0.10342209 C102.77775981 -0.10334218 103.57849168 -0.10326227 104.40348816 -0.10317993 C105.20520034 -0.10309817 106.00691253 -0.10301641 106.83291902 -0.10293217 C119.8242255 -0.10211936 132.81541601 -0.1212567 145.80668894 -0.14945666 C159.15350708 -0.17819926 172.50026869 -0.19199621 185.84711856 -0.19026911 C193.33736646 -0.18960569 200.82749279 -0.19507707 208.31771278 -0.21662521 C214.69526292 -0.23485515 221.07263637 -0.23916956 227.45020131 -0.22560637 C230.70205331 -0.21908571 233.95349691 -0.22110912 237.2053299 -0.23631287 C240.7360656 -0.25175031 244.26591423 -0.24246578 247.79663086 -0.22705078 C249.32700248 -0.24248147 249.32700248 -0.24248147 250.8882907 -0.25822389 C260.87182425 -0.16204604 268.74760923 3.56258309 276.08879089 10.26742554 C285.10447261 19.92857176 286.68441417 30.16173396 286.59672546 42.99133301 C286.60134097 44.46937004 286.60769824 45.94740248 286.61563444 47.42542541 C286.63226297 51.46523344 286.62411101 55.50466129 286.61168957 59.54447031 C286.60261424 63.91003847 286.61662141 68.27554269 286.62760925 72.64109802 C286.64537529 81.18633581 286.64156225 89.73143288 286.62995869 98.27667613 C286.62091356 105.22663649 286.61970505 112.1765575 286.62405396 119.12652206 C286.62466689 120.11690228 286.62527982 121.1072825 286.62591133 122.12767424 C286.62719028 124.13989022 286.62848714 126.15210617 286.62980169 128.16432212 C286.64120281 147.02552272 286.62810298 165.88664552 286.60660022 184.74783336 C286.58874629 200.90804895 286.59182021 217.06814954 286.61027527 233.22836304 C286.63171894 252.01422196 286.64008675 270.80001261 286.62782621 289.58588207 C286.62655209 291.59239951 286.62529461 293.59891696 286.62405396 295.60543442 C286.6231283 297.08610589 286.6231283 297.08610589 286.62218395 298.59668992 C286.61874028 305.52983035 286.62453847 312.46292726 286.63397217 319.39606094 C286.64523317 327.85792583 286.64206705 336.31964245 286.62084919 344.78149052 C286.61039112 349.09339244 286.60612631 353.40504788 286.6194458 357.71694756 C286.63148645 361.67499486 286.62461818 365.63257046 286.60353559 369.5905758 C286.59911815 371.01181263 286.60122433 372.43309047 286.61103874 373.85430028 C286.73941032 394.01217882 280.89654893 412.04614973 266.85319519 426.76498413 C252.38462203 441.15963518 233.25182394 448.38708839 214.15129089 454.45492554 C213.34898041 454.71233521 212.54666992 454.96974487 211.720047 455.23495483 C186.51099362 463.28111977 160.60152233 467.07713082 134.30021667 469.52719116 C130.06259158 469.84070967 130.06259158 469.84070967 126.1627655 471.3621521 C123.41110842 472.56322855 121.94901916 472.04253717 119.08879089 471.26742554 C112.30746736 469.78908329 105.55826138 468.78365853 98.66423035 467.97640991 C75.24550102 465.21174987 52.6910256 460.78148294 30.27629089 453.39242554 C29.53214935 453.14984009 28.78800781 452.90725464 28.02131653 452.65731812 C13.43769462 447.86061953 -0.77433768 441.84916614 -12.91120911 432.26742554 C-13.66659973 431.68734741 -14.42199036 431.10726929 -15.20027161 430.50961304 C-28.58406333 419.51742671 -36.51997354 403.26619706 -38.91120911 386.26742554 C-39.19274743 381.37388146 -39.19050294 376.48571899 -39.17863464 371.58580017 C-39.1823767 370.11245315 -39.18698043 368.63910811 -39.19236529 367.16576618 C-39.20454149 363.13921154 -39.20434122 359.11274033 -39.20197654 355.08617151 C-39.20156702 350.73502676 -39.2126202 346.38390827 -39.22209167 342.03277588 C-39.23867181 333.51733078 -39.24419982 325.00191338 -39.24531643 316.48645348 C-39.24626808 309.56363179 -39.2503842 302.64081922 -39.25671768 295.71800041 C-39.27431995 276.07730193 -39.28355784 256.43662526 -39.28205673 236.79591883 C-39.28197682 235.7381054 -39.28189691 234.68029197 -39.28181458 233.59042358 C-39.28173281 232.53131454 -39.28165105 231.4722055 -39.28156681 230.38100224 C-39.28075363 213.210704 -39.29990205 196.04049343 -39.32809131 178.87022055 C-39.35682796 161.22696099 -39.37063125 143.58374418 -39.36890376 125.94046062 C-39.36824025 116.04018539 -39.37371568 106.14000212 -39.39525986 96.239748 C-39.41348165 87.81252225 -39.41781057 79.38543019 -39.40424101 70.95819325 C-39.39771714 66.66107696 -39.3975732 62.36421711 -39.41494751 58.06712532 C-39.4307085 54.12847524 -39.4277841 50.19028429 -39.41037925 46.2516452 C-39.40731605 44.83183648 -39.41091602 43.41199322 -39.4220994 41.99222524 C-39.5130521 29.61969019 -37.32027108 20.0359423 -29.19245911 10.49789429 C-20.70267643 2.1970965 -11.4947134 -0.03466753 0 0 Z M-27.91120911 16.26742554 C-32.23163371 22.52742318 -34.03283103 27.71594466 -34.04543018 35.30873585 C-34.04988803 36.55450517 -34.05434587 37.8002745 -34.0589388 39.08379441 C-34.05884951 40.46872001 -34.05865966 41.8536456 -34.05838013 43.23857117 C-34.06167973 44.70801252 -34.0654055 46.17745296 -34.06952161 47.64689225 C-34.07953931 51.69066044 -34.08325805 55.73441379 -34.08591092 59.77819264 C-34.08981482 64.1376929 -34.09939331 68.49718143 -34.10812378 72.85667419 C-34.12788892 83.38983883 -34.13795585 93.92300444 -34.14685157 104.45618299 C-34.15123562 109.41879433 -34.15660225 114.38140462 -34.16184044 119.34401512 C-34.17885509 135.84633443 -34.19334756 152.34865307 -34.20058918 168.8509798 C-34.20249903 173.13375665 -34.20441936 177.41653348 -34.20637512 181.6993103 C-34.20685886 182.76375373 -34.2073426 183.82819715 -34.207841 184.92489644 C-34.21613487 202.1543015 -34.24145985 219.38363699 -34.2739558 236.6130117 C-34.30706149 254.31033636 -34.32504124 272.00762572 -34.32823342 289.70498151 C-34.3303956 299.63789665 -34.33910105 309.57071043 -34.3646946 319.50359535 C-34.38644982 327.96634494 -34.39442847 336.42896854 -34.38472781 344.89174292 C-34.38019664 349.20552013 -34.38199986 353.51903768 -34.40148926 357.83277893 C-34.41921963 361.79160615 -34.41804419 365.7499862 -34.40259197 369.70881882 C-34.40023071 371.13157325 -34.40446137 372.55435947 -34.41642062 373.9770656 C-34.56279534 392.56001423 -29.3991004 409.36343876 -16.26667786 423.00180054 C13.34034461 451.47953359 61.5225088 458.43558631 100.49504089 463.40805054 C118.271212 465.68027217 118.271212 465.68027217 122.20793152 466.95199585 C124.75160652 467.37858309 125.81080859 466.43481472 128.08879089 465.26742554 C130.33860643 464.91629108 132.60267698 464.65303107 134.87004089 464.44320679 C136.26466326 464.30545432 137.65919055 464.16673676 139.05363464 464.02719116 C139.79081726 463.95540649 140.52799988 463.88362183 141.28752136 463.80966187 C167.44250852 461.19860278 192.92487261 456.86079293 217.83879089 448.32992554 C218.5469696 448.08911255 219.25514832 447.84829956 219.98478699 447.60018921 C227.81203985 444.90584672 235.34681913 441.81510283 242.76457214 438.13461304 C243.74698883 437.64717369 243.74698883 437.64717369 244.74925232 437.14988708 C250.50819888 434.20557681 255.3398422 430.62616341 260.08879089 426.26742554 C260.86738464 425.58035522 261.64597839 424.89328491 262.44816589 424.18539429 C276.25923409 411.32441635 281.31137998 394.14081189 282.27374339 375.72892368 C282.34974412 371.99652148 282.36513374 368.26900447 282.35621643 364.5358429 C282.35996333 363.10584178 282.36456894 361.67584271 282.36994708 360.24584681 C282.38206308 356.35760713 282.38193028 352.4694542 282.37955832 348.5812 C282.37914727 344.37187428 282.39021629 340.16257531 282.39967346 335.95326233 C282.41621915 327.7237821 282.42177999 319.49433053 282.42289822 311.26483505 C282.42385128 304.57334277 282.42797439 297.88185987 282.43429947 291.19037056 C282.45189042 272.19214866 282.46114112 253.19394928 282.45963852 234.19571918 C282.45955861 233.17354975 282.4594787 232.15138033 282.45939636 231.09823608 C282.45927372 229.5630976 282.45927372 229.5630976 282.4591486 227.99694622 C282.45833519 211.40053973 282.47749231 194.80422387 282.5056731 178.20784359 C282.53442329 161.14075386 282.54821237 144.07370832 282.54648554 127.00659376 C282.54582263 117.43495413 282.55127256 107.86340967 282.57284164 98.29179192 C282.59108104 90.146156 282.59537775 82.00065845 282.5818228 73.85501092 C282.57530849 69.70343492 282.57512031 65.55212422 282.5925293 61.40057373 C282.60833232 57.5927368 282.6053236 53.78537394 282.58796103 49.97754807 C282.58347163 47.96372135 282.59849093 45.94987948 282.61444032 43.93611091 C282.53793955 33.7679536 281.29831939 22.45379489 273.96379089 14.76742554 C273.28058777 14.01461304 272.59738464 13.26180054 271.89347839 12.48617554 C264.25066104 6.44004704 257.31796618 4.52733667 247.68983459 4.64596558 C246.58437574 4.63957675 245.47891688 4.63318793 244.33995926 4.62660551 C240.65804235 4.61141849 236.9772123 4.63177653 233.29533386 4.65219116 C230.64674561 4.64868812 227.99822731 4.64322348 225.34965515 4.63537598 C218.91659537 4.62089185 212.48385252 4.63303966 206.05082284 4.65448922 C198.55306584 4.67856642 191.05538043 4.67678078 183.55759336 4.67418331 C170.17746469 4.67049783 156.79748485 4.69127936 143.41740417 4.72543335 C130.44470968 4.75853496 117.4721713 4.77268885 104.49943542 4.76644897 C90.35749645 4.75968013 76.21562275 4.76215819 62.07369339 4.78180838 C61.32544756 4.78284786 60.57720173 4.78388735 59.80628178 4.78495833 C58.3036448 4.78704916 56.80100785 4.78916013 55.29837092 4.79129151 C50.07620106 4.79817694 44.85405135 4.79885813 39.6318779 4.79740906 C33.266471 4.79596721 26.90119111 4.80569946 20.53582631 4.82935542 C17.29022622 4.8411891 14.04483794 4.84674929 10.79921341 4.84251785 C7.27720013 4.83880196 3.75573051 4.8535554 0.23377991 4.87301636 C-0.7866522 4.86768843 -1.80708431 4.86236051 -2.85843861 4.85687113 C-13.5285573 4.95856284 -20.68658992 8.31346384 -27.91120911 16.26742554 Z " fill="#114477" transform="translate(132.9112091064453,19.732574462890625)"/>
<path d="M0 0 C5.42140034 3.05431005 8.26484607 7.17901908 10.35546875 12.98828125 C11.64021966 18.99157188 11.22203439 24.89405418 11 31 C2.42 31 -6.16 31 -15 31 C-15.495 22.09 -15.495 22.09 -16 13 C-17.65 12.67 -19.3 12.34 -21 12 C-22.72853755 13.72853755 -22.1275616 16.05121047 -22.12939453 18.40600586 C-22.13254669 19.56067856 -22.13569885 20.71535126 -22.13894653 21.90501404 C-22.1369223 23.16225784 -22.13489807 24.41950165 -22.1328125 25.71484375 C-22.13376923 26.99605606 -22.13472595 28.27726837 -22.13571167 29.5973053 C-22.13718848 32.31349895 -22.13503498 35.02965977 -22.13037109 37.74584961 C-22.12467947 41.23084858 -22.12794929 44.71577044 -22.13394356 48.20076656 C-22.13842309 51.51796517 -22.13528772 54.83514296 -22.1328125 58.15234375 C-22.13483673 59.40756332 -22.13686096 60.6627829 -22.13894653 61.95603943 C-22.13579437 63.11386429 -22.13264221 64.27168915 -22.12939453 65.46459961 C-22.12859894 66.48750595 -22.12780334 67.51041229 -22.12698364 68.5643158 C-22.16238864 71.00858908 -22.16238864 71.00858908 -21 73 C-19.33388095 73.042721 -17.66617115 73.04063832 -16 73 C-14.45049732 71.45049732 -14.78344807 69.90009406 -14.68359375 67.74609375 C-14.62075195 66.46508789 -14.62075195 66.46508789 -14.55664062 65.15820312 C-14.51732422 64.26037109 -14.47800781 63.36253906 -14.4375 62.4375 C-14.37272461 61.08495117 -14.37272461 61.08495117 -14.30664062 59.70507812 C-14.20021858 57.47021515 -14.09820012 55.23523692 -14 53 C-15.65 53 -17.3 53 -19 53 C-19 48.71 -19 44.42 -19 40 C-9.1 40 0.8 40 11 40 C11 55.84 11 71.68 11 88 C5.72 88 0.44 88 -5 88 C-5.99 86.35 -6.98 84.7 -8 83 C-9.299375 84.175625 -9.299375 84.175625 -10.625 85.375 C-15.36528731 89.27551613 -20.34161104 90.60882845 -26.43359375 90.43359375 C-32.75628736 89.36537611 -38.76170841 86.49264291 -43.0625 81.703125 C-46.5312621 76.6000423 -48.11695826 72.5755008 -48.17700195 66.37036133 C-48.18983719 65.21518509 -48.20267242 64.06000885 -48.21589661 62.86982727 C-48.22328354 61.61985458 -48.23067047 60.3698819 -48.23828125 59.08203125 C-48.246353 57.79568283 -48.25442474 56.50933441 -48.26274109 55.18400574 C-48.27775735 52.45787692 -48.28759922 49.73177404 -48.29516602 47.00561523 C-48.30620078 43.52996885 -48.34056999 40.05496794 -48.38033772 36.57954884 C-48.41293171 33.24707009 -48.41729408 29.91465699 -48.42578125 26.58203125 C-48.44328934 25.34217972 -48.46079742 24.10232819 -48.47883606 22.8249054 C-48.45902622 14.89616282 -47.79588957 8.9837274 -42.10546875 3.01171875 C-41.47253906 2.57472656 -40.83960938 2.13773437 -40.1875 1.6875 C-39.24970703 1.01267578 -39.24970703 1.01267578 -38.29296875 0.32421875 C-26.36003127 -6.56720511 -12.35422596 -5.5524611 0 0 Z " fill="#FDFBFB" transform="translate(275,269)"/>
<path d="M0 0 C6.02420062 4.64392339 7.74123918 9.20450554 8.82421875 16.40625 C9.03408926 19.76875486 9.01659023 23.10166628 8.94921875 26.46875 C8.90796875 29.418125 8.86671875 32.3675 8.82421875 35.40625 C0.57421875 35.40625 -7.67578125 35.40625 -16.17578125 35.40625 C-16.61328125 24.03125 -16.61328125 24.03125 -16.74389648 20.44775391 C-16.80105835 19.05435791 -16.80105835 19.05435791 -16.859375 17.6328125 C-16.91436157 16.20316162 -16.91436157 16.20316162 -16.97045898 14.74462891 C-17.0334159 12.38492651 -17.0334159 12.38492651 -18.17578125 10.40625 C-19.8419003 10.363529 -21.5096101 10.36561168 -23.17578125 10.40625 C-24.44694888 11.45381586 -24.44694888 11.45381586 -24.29603577 13.80433655 C-24.29381516 14.86800949 -24.29159454 15.93168243 -24.28930664 17.02758789 C-24.28919334 18.82934227 -24.28919334 18.82934227 -24.28907776 20.66749573 C-24.28391647 21.9747612 -24.27875519 23.28202667 -24.2734375 24.62890625 C-24.27157323 25.97269132 -24.27014937 27.31647707 -24.26914978 28.66026306 C-24.26532527 32.20307277 -24.25549557 35.7458417 -24.2444458 39.28863525 C-24.23423024 42.90140227 -24.22965185 46.51417584 -24.22460938 50.12695312 C-24.21387323 57.2200688 -24.19679761 64.31315674 -24.17578125 71.40625 C-22.19578125 71.40625 -20.21578125 71.40625 -18.17578125 71.40625 C-17.02923643 69.11316037 -16.97849008 67.60715344 -16.859375 65.0546875 C-16.82126709 64.28817871 -16.78315918 63.52166992 -16.74389648 62.73193359 C-16.70079346 61.75820801 -16.65769043 60.78448242 -16.61328125 59.78125 C-16.46890625 56.6875 -16.32453125 53.59375 -16.17578125 50.40625 C-7.92578125 50.40625 0.32421875 50.40625 8.82421875 50.40625 C8.88609375 53.21125 8.94796875 56.01625 9.01171875 58.90625 C9.05268677 60.2065918 9.05268677 60.2065918 9.09448242 61.53320312 C9.16639095 68.35600803 7.72405929 73.47459952 4.01171875 79.203125 C1.47215162 81.76083189 -0.92526757 83.112256 -4.17578125 84.65625 C-5.20703125 85.15640625 -6.23828125 85.6565625 -7.30078125 86.171875 C-15.83018103 89.83395425 -26.41918529 89.70821203 -35.17578125 86.78125 C-41.22880275 84.21412035 -46.25618973 80.96523619 -49.05078125 74.84375 C-50.58405503 70.15874678 -51.29988779 65.94929164 -51.36865234 61.02441406 C-51.38471527 59.97272034 -51.4007782 58.92102661 -51.41732788 57.83746338 C-51.46209902 53.04236749 -51.50283078 48.2474047 -51.52587891 43.45214844 C-51.5424341 40.9286171 -51.56971796 38.40513256 -51.60791016 35.88183594 C-51.66286177 32.22827016 -51.68458099 28.57579917 -51.69921875 24.921875 C-51.72188812 23.80282776 -51.7445575 22.68378052 -51.76791382 21.53082275 C-51.74872234 14.36405907 -50.62775105 9.14535809 -46.17578125 3.40625 C-34.02499954 -8.31811705 -13.90346981 -9.39645111 0 0 Z " fill="#FDFBFB" transform="translate(209.17578125,270.59375)"/>
<path d="M0 0 C4.96753732 3.85063921 7.71683492 8.18021838 8.82421875 14.4140625 C9.05009414 18.06606648 9.013703 21.6945067 8.94921875 25.3515625 C8.90796875 28.6721875 8.86671875 31.9928125 8.82421875 35.4140625 C0.57421875 35.4140625 -7.67578125 35.4140625 -16.17578125 35.4140625 C-16.61328125 24.0390625 -16.61328125 24.0390625 -16.74389648 20.45556641 C-16.80105835 19.06217041 -16.80105835 19.06217041 -16.859375 17.640625 C-16.91436157 16.21097412 -16.91436157 16.21097412 -16.97045898 14.75244141 C-17.0334159 12.39273901 -17.0334159 12.39273901 -18.17578125 10.4140625 C-20.59197948 10.16375273 -20.59197948 10.16375273 -23.17578125 10.4140625 C-25.4101571 13.76562627 -25.42450062 14.84338597 -25.41870117 18.75585938 C-25.4217778 19.84709106 -25.42485443 20.93832275 -25.42802429 22.06262207 C-25.42083878 23.24078491 -25.41365326 24.41894775 -25.40625 25.6328125 C-25.40579178 26.84223511 -25.40533356 28.05165771 -25.40486145 29.29772949 C-25.40183844 31.85653666 -25.39395072 34.41534198 -25.3815918 36.97412109 C-25.36335507 40.89817806 -25.36108198 44.82199886 -25.36132812 48.74609375 C-25.3564122 51.22916871 -25.35058355 53.71224207 -25.34375 56.1953125 C-25.34263718 57.37347534 -25.34152435 58.55163818 -25.34037781 59.76550293 C-25.33399796 60.85673462 -25.3276181 61.94796631 -25.32104492 63.07226562 C-25.31723312 64.03362427 -25.31342133 64.99498291 -25.30949402 65.98547363 C-25.27499885 68.55573657 -25.27499885 68.55573657 -24.17578125 71.4140625 C-22.19578125 71.4140625 -20.21578125 71.4140625 -18.17578125 71.4140625 C-17.02923643 69.12097287 -16.97849008 67.61496594 -16.859375 65.0625 C-16.82126709 64.29599121 -16.78315918 63.52948242 -16.74389648 62.73974609 C-16.70079346 61.76602051 -16.65769043 60.79229492 -16.61328125 59.7890625 C-16.46890625 56.6953125 -16.32453125 53.6015625 -16.17578125 50.4140625 C-7.92578125 50.4140625 0.32421875 50.4140625 8.82421875 50.4140625 C9.22386775 72.59458225 9.22386775 72.59458225 3.6484375 79.77734375 C-4.63935848 87.21328918 -14.59145189 88.89999854 -25.2734375 88.69140625 C-33.10319008 88.13493735 -40.05961472 85.56358869 -45.80859375 80.1171875 C-51.89902048 72.53025591 -51.35126376 61.92747681 -51.4140625 52.734375 C-51.42213425 51.60764374 -51.43020599 50.48091248 -51.43852234 49.32003784 C-51.45232183 46.94140138 -51.46306237 44.56274546 -51.47094727 42.18408203 C-51.48248651 39.75759051 -51.50296866 37.33112476 -51.5324707 34.90478516 C-51.57518901 31.38947384 -51.59132057 27.87491379 -51.6015625 24.359375 C-51.61907059 23.28205109 -51.63657867 22.20472717 -51.65461731 21.09475708 C-51.63313192 13.59572591 -50.49497156 8.27129507 -45.46484375 2.42578125 C-32.66984316 -7.75615584 -13.87929439 -9.32557698 0 0 Z " fill="#FEFCFC" transform="translate(346.17578125,270.5859375)"/>
<path d="M0 0 C4.77439975 3.06123278 8.06711924 5.81208897 10.90625 10.765625 C11.40640625 11.62285156 11.9065625 12.48007813 12.421875 13.36328125 C16.08919025 20.31493263 15.94085894 30.2329163 13.78515625 37.734375 C9.32922251 47.20140799 2.32185311 52.94255273 -7.34375 56.703125 C-15.82913207 58.71315554 -23.96492531 57.84473942 -31.55078125 53.4140625 C-38.0350682 48.77711543 -44.25639316 42.87160035 -45.9453125 34.84375 C-47.213712 24.84577751 -46.90212279 17.29921316 -41.34375 8.703125 C-40.76625 7.795625 -40.18875 6.888125 -39.59375 5.953125 C-28.22792369 -5.41270131 -14.12988021 -7.68603374 0 0 Z " fill="#F9FAFB" transform="translate(272.34375,123.296875)"/>
<path d="M0 0 C3.39537852 -0.14575327 6.78994902 -0.23421542 10.1875 -0.3125 C11.14720703 -0.35439453 12.10691406 -0.39628906 13.09570312 -0.43945312 C17.67225443 -0.51863221 20.23649025 -0.49136766 24.15625 2.03125 C26.44479633 5.71619749 26.57332618 8.61921755 26.3125 12.8125 C26.28994141 13.50537109 26.26738281 14.19824219 26.24414062 14.91210938 C26.18562661 16.60901573 26.0959548 18.30479861 26 20 C24.68 20.33 23.36 20.66 22 21 C22 21.66 22 22.32 22 23 C22.639375 23.309375 23.27875 23.61875 23.9375 23.9375 C26 25 26 25 27 26 C28.15912401 32.95474404 28.09009009 39.97297263 28 47 C24.37 47 20.74 47 17 47 C16.23284249 40.28737179 15.87066398 33.75421451 16 27 C15.01 27 14.02 27 13 27 C13 33.93 13 40.86 13 48 C8.76358987 48.84728203 5.27587998 49.08384078 1 49 C0.29546207 32.6569685 -0.1488637 16.35846671 0 0 Z " fill="#F7F9FA" transform="translate(260,411)"/>
<path d="M0 0 C7.95380435 1.29483696 7.95380435 1.29483696 10 3 C10.78841542 5.78298876 11.33350841 8.28795726 11.75 11.125 C11.93755859 12.25615234 11.93755859 12.25615234 12.12890625 13.41015625 C12.43510476 15.27090102 12.71964088 17.13518704 13 19 C13.99 14.71 14.98 10.42 16 6 C22 7 22 7 25 9 C23.5101683 24.84872684 20.12190255 40.41104542 17 56 C15.35303396 55.5247412 13.70745272 55.04468109 12.0625 54.5625 C11.14597656 54.29566406 10.22945312 54.02882813 9.28515625 53.75390625 C7 53 7 53 6 52 C5.91299658 50.36527118 5.89298937 48.72685945 5.90234375 47.08984375 C5.90556641 46.10048828 5.90878906 45.11113281 5.91210938 44.09179688 C5.92048828 43.05087891 5.92886719 42.00996094 5.9375 40.9375 C5.94201172 39.89271484 5.94652344 38.84792969 5.95117188 37.77148438 C5.96300087 35.1809334 5.97948311 32.59049441 6 30 C5.34 30 4.68 30 4 30 C4.061875 30.886875 4.12375 31.77375 4.1875 32.6875 C4.22410208 38.5926351 2.43634071 44.31448468 1 50 C-1.97 49.01 -4.94 48.02 -8 47 C-7.28176135 37.1469796 -5.31308346 27.55828775 -3.4375 17.875 C-3.10441547 16.13809792 -2.7717298 14.40111931 -2.43945312 12.6640625 C-1.63090029 8.4418114 -0.81694831 4.22063437 0 0 Z " fill="#F8F9FB" transform="translate(156,391)"/>
<path d="M0 0 C3.49529294 1.11213866 6.74469192 2.31573191 10 4 C9.45736458 15.03358678 6.41621468 25.9397388 2.84765625 36.3671875 C1.88386473 39.36071508 1.85117458 41.87466627 2 45 C8.10428751 33.81328809 9.9776266 19.31245556 13 7 C17.03791199 8.28631545 20.43360176 9.69233055 24 12 C23.49308035 18.33649558 21.91914688 24.10246991 20.109375 30.1875 C19.34623754 32.81011325 18.62332523 35.41710589 17.953125 38.0625 C17.78272705 38.73079834 17.6123291 39.39909668 17.43676758 40.08764648 C16.96220307 41.96478696 16.4945815 43.84367868 16.02734375 45.72265625 C15.03408779 48.89125607 13.91090818 51.29494816 12 54 C8.78170275 55.60914863 5.49044894 55.46321846 2 55 C-3.50282877 52.19463631 -8.01884641 47.94346078 -10 42 C-10.24494266 37.19228826 -9.74021353 33.33222682 -8.3125 28.75 C-6.25974023 21.94656762 -4.43058498 15.10460251 -2.66333008 8.22167969 C-1.10394751 2.20789502 -1.10394751 2.20789502 0 0 Z " fill="#F8FAFB" transform="translate(127,376)"/>
<path d="M0 0 C4.27587998 -0.08384078 7.76358987 0.15271797 12 1 C12.33 10.57 12.66 20.14 13 30 C14.32 21.09 15.64 12.18 17 3 C26 3 26 3 30 4 C28.1836392 13.97405139 26.2515757 23.92574384 24.28326416 33.87078857 C24.01056149 35.25126177 23.73920409 36.63200139 23.46917725 38.01300049 C23.08477255 39.97685434 22.69484124 41.93962395 22.3046875 43.90234375 C21.9641333 45.62698853 21.9641333 45.62698853 21.61669922 47.38647461 C21 50 21 50 20 51 C15.349419 51.25366805 11.27431652 50.9439951 6.71484375 49.98828125 C5.82788818 49.80434814 4.94093262 49.62041504 4.02709961 49.4309082 C3.35815674 49.2887085 2.68921387 49.14650879 2 49 C1.71032534 44.11135498 1.42573464 39.22244766 1.14550781 34.33325195 C1.04984162 32.67594755 0.95287436 31.01871765 0.85449219 29.36157227 C0.27355372 19.55971761 -0.15823869 9.82288628 0 0 Z " fill="#F9FBFC" transform="translate(203,406)"/>
<path d="M0 0 C3.37298421 2.3532448 3.8903999 3.88949949 4.6875 7.875 C4.6875 9.525 4.6875 11.175 4.6875 12.875 C1.0575 13.535 -2.5725 14.195 -6.3125 14.875 C-6.6425 12.895 -6.9725 10.915 -7.3125 8.875 C-7.9725 8.875 -8.6325 8.875 -9.3125 8.875 C-9.3125 10.855 -9.3125 12.835 -9.3125 14.875 C-8.33667969 15.39449219 -7.36085938 15.91398437 -6.35546875 16.44921875 C-5.06994402 17.15297316 -3.78480797 17.85743789 -2.5 18.5625 C-1.85740234 18.90216797 -1.21480469 19.24183594 -0.55273438 19.59179688 C3.39914709 21.78273634 5.93115003 23.52867018 7.6875 27.875 C8.12109375 31.25 8.12109375 31.25 8.125 34.875 C8.15400391 36.669375 8.15400391 36.669375 8.18359375 38.5 C7.59965283 42.47263745 6.49722697 44.06021956 3.6875 46.875 C-1.42010992 49.77932721 -6.51237627 51.06978204 -12.3125 49.875 C-15.06819447 47.69340855 -16.74838747 46.00322506 -18.3125 42.875 C-18.44809318 39.87025503 -18.35549016 36.88431153 -18.3125 33.875 C-15.0125 33.215 -11.7125 32.555 -8.3125 31.875 C-7.6525 34.845 -6.9925 37.815 -6.3125 40.875 C-5.6525 40.875 -4.9925 40.875 -4.3125 40.875 C-4.3125 38.235 -4.3125 35.595 -4.3125 32.875 C-5.77623047 32.11316406 -5.77623047 32.11316406 -7.26953125 31.3359375 C-8.55516471 30.64150775 -9.84029486 29.94614564 -11.125 29.25 C-11.76759766 28.91871094 -12.41019531 28.58742188 -13.07226562 28.24609375 C-17.47793015 25.82640235 -19.59836758 23.79462191 -21.3125 18.875 C-22.16815785 13.33461542 -22.44121177 8.50167285 -19.1875 3.8125 C-12.60652213 -0.62250683 -7.84782328 -2.66529847 0 0 Z " fill="#F7F8FA" transform="translate(312.3125,406.125)"/>
<path d="M0 0 C0.57184845 8.21237916 -0.73317769 14.46005743 -4 22 C-5.32 22 -6.64 22 -8 22 C-8 21.01 -8 20.02 -8 19 C-8.495 21.475 -8.495 21.475 -9 24 C-8.34 24 -7.68 24 -7 24 C-7 24.66 -7 25.32 -7 26 C-8.03060547 26.48919922 -8.03060547 26.48919922 -9.08203125 26.98828125 C-10.43361328 27.64376953 -10.43361328 27.64376953 -11.8125 28.3125 C-12.70582031 28.74175781 -13.59914063 29.17101562 -14.51953125 29.61328125 C-16.81359217 30.89578775 -18.18888037 32.14736473 -20 34 C-26.78584773 36.26194924 -35.09131703 35.79986026 -41.765625 33.2421875 C-48.6659248 29.40600684 -53.7877059 24.18103164 -57 17 C-52.25 15.875 -52.25 15.875 -50 17 C-48.96564444 18.64556566 -47.97236487 20.3170608 -47 22 C-44.40427424 26.2396854 -41.92907369 28.98511672 -38 32 C-38.04640625 31.13117188 -38.0928125 30.26234375 -38.140625 29.3671875 C-38.49912127 17.92091388 -38.49912127 17.92091388 -34 13 C-35.32 12.67 -36.64 12.34 -38 12 C-38 11.01 -38 10.02 -38 9 C-37.4225 9.20625 -36.845 9.4125 -36.25 9.625 C-33.44563145 10.09239476 -32.34613181 9.53712084 -30 8 C-29.67 7.34 -29.34 6.68 -29 6 C-31.475 5.505 -31.475 5.505 -34 5 C-34 4.01 -34 3.02 -34 2 C-32.55903414 2.42594588 -31.12231288 2.86626633 -29.6875 3.3125 C-28.88699219 3.55613281 -28.08648437 3.79976562 -27.26171875 4.05078125 C-24.84689883 5.06425489 -23.58576039 5.92631333 -22 8 C-21.8125 11.1875 -21.8125 11.1875 -22 14 C-21.071875 13.175 -20.14375 12.35 -19.1875 11.5 C-16.375 9 -16.375 9 -13 9 C-12.25073929 12.66305234 -11.7619986 15.42355152 -13 19 C-12.01 17.68 -11.02 16.36 -10 15 C-9.34 15.33 -8.68 15.66 -8 16 C-8 14.35 -8 12.7 -8 11 C-6.35 10.67 -4.7 10.34 -3 10 C-3 7.03 -3 4.06 -3 1 C-1 0 -1 0 0 0 Z " fill="#204D7B" transform="translate(286,144)"/>
<path d="M0 0 C1.12921875 -0.00515625 2.2584375 -0.0103125 3.421875 -0.015625 C6.25 0.25 6.25 0.25 8.25 2.25 C7.26 3.57 6.27 4.89 5.25 6.25 C4.59 5.59 3.93 4.93 3.25 4.25 C1.34353914 4.48888365 1.34353914 4.48888365 -0.6875 5.1875 C-3.815142 6.16379199 -4.48897089 6.3370097 -7.75 5.25 C-12.46906188 5.25 -14.02037031 6.53754204 -17.75 9.25 C-16.1 8.59 -14.45 7.93 -12.75 7.25 C-13.3125 9.0625 -13.3125 9.0625 -14.75 11.25 C-17.05965848 12.30352843 -19.3929774 13.30719096 -21.75 14.25 C-22.08 14.91 -22.41 15.57 -22.75 16.25 C-23.41 16.25 -24.07 16.25 -24.75 16.25 C-24.75 17.24 -24.75 18.23 -24.75 19.25 C-23.1 18.92 -21.45 18.59 -19.75 18.25 C-19.42 19.9 -19.09 21.55 -18.75 23.25 C-18.09 23.25 -17.43 23.25 -16.75 23.25 C-16.42 22.26 -16.09 21.27 -15.75 20.25 C-15.75 21.24 -15.75 22.23 -15.75 23.25 C-14.43 23.25 -13.11 23.25 -11.75 23.25 C-11.976875 23.806875 -12.20375 24.36375 -12.4375 24.9375 C-12.87870476 28.20241522 -11.53204672 29.54392905 -9.75 32.25 C-9.42 33.1575 -9.09 34.065 -8.75 35 C-8.42 35.7425 -8.09 36.485 -7.75 37.25 C-6.265 37.745 -6.265 37.745 -4.75 38.25 C-5.059375 38.9925 -5.36875 39.735 -5.6875 40.5 C-7.2376089 44.51204656 -7.91823471 48.21940545 -8.3125 52.5 C-8.39628906 53.39203125 -8.48007813 54.2840625 -8.56640625 55.203125 C-8.65728516 56.21632813 -8.65728516 56.21632813 -8.75 57.25 C-14.02124871 54.75193433 -17.03612263 51.41929023 -19.75 46.25 C-20.4375 43.9375 -20.4375 43.9375 -20.75 42.25 C-23.72 42.745 -23.72 42.745 -26.75 43.25 C-22.12960095 50.14559556 -17.24167991 55.34967388 -9.5 58.625 C0.24855752 60.24975959 6.1773501 59.84312701 14.25 54.125 C17.08301344 52.3543666 18.97417353 51.63539135 22.25 51.25 C18.53547616 57.15946974 12.30557674 60.28150406 5.6328125 61.875 C-2.91031017 63.21949144 -10.94741021 61.54334337 -18 56.5 C-24.90350208 50.88217037 -29.61072619 45.2301583 -30.75 36.25 C-31.54833878 27.26298632 -30.67775834 20.87083557 -25.75 13.25 C-25.1725 12.3425 -24.595 11.435 -24 10.5 C-17.18797164 3.68797164 -9.70183712 -0.04470893 0 0 Z " fill="#F6F8FA" transform="translate(256.75,118.75)"/>
<path d="M0 0 C6.6 0 13.2 0 20 0 C20 3.3 20 6.6 20 10 C17.36 10 14.72 10 12 10 C12 12.97 12 15.94 12 19 C14.31 19 16.62 19 19 19 C19 21.97 19 24.94 19 28 C16.36 28 13.72 28 11 28 C11 31.63 11 35.26 11 39 C13.97 39 16.94 39 20 39 C20 42.3 20 45.6 20 49 C12.90272572 49.10808032 6.03905044 48.93854006 -1 48 C-1.07131276 37.17531758 -0.85665154 26.38053125 -0.5 15.5625 C-0.45160633 14.0410225 -0.40342827 12.51953812 -0.35546875 10.99804688 C-0.23984349 7.33192872 -0.11984563 3.66599212 0 0 Z " fill="#F7F9FA" transform="translate(235,411)"/>
<path d="M0 0 C0.01458252 1.00264893 0.02916504 2.00529785 0.04418945 3.03833008 C0.1027866 6.80901242 0.1800068 10.57913525 0.26245117 14.34936523 C0.29541499 15.97166771 0.32353272 17.59407703 0.34643555 19.21655273 C0.46945882 27.70515884 0.59905841 35.62020246 3.36791992 43.74487305 C4.07009584 46.25008702 4.10679953 48.41075575 4 51 C-2.625 55 -2.625 55 -6 55 C-6.17208984 53.70255859 -6.17208984 53.70255859 -6.34765625 52.37890625 C-9.06174199 37.88895121 -17.13891831 26.21536114 -25 14 C-22.54774487 11.44765282 -20.13079636 9.68581342 -17 8 C-16.34 8 -15.68 8 -15 8 C-14.18247697 9.58074564 -13.37118003 11.16471223 -12.5625 12.75 C-12.11003906 13.63171875 -11.65757812 14.5134375 -11.19140625 15.421875 C-10.16544602 17.64198566 -9.48491397 19.61444619 -9 22 C-9.2475 20.2984375 -9.2475 20.2984375 -9.5 18.5625 C-9.66984109 17.0420179 -9.83629949 15.52115547 -10 14 C-10.11472656 13.22140625 -10.22945313 12.4428125 -10.34765625 11.640625 C-10.57309982 9.19763645 -10.64512761 7.37298686 -10 5 C-7.2534293 2.30973713 -3.93924081 0 0 0 Z " fill="#F7F9FA" transform="translate(387,375)"/>
<path d="M0 0 C0.33 2.97 0.66 5.94 1 9 C-0.98 9.99 -0.98 9.99 -3 11 C-2.42475486 19.52825476 -1.05170598 27.79995913 0.5625 36.1875 C0.79646484 37.42564453 1.03042969 38.66378906 1.27148438 39.93945312 C1.84304216 42.96054425 2.41929542 45.98065615 3 49 C1.56570999 49.67354499 0.12742943 50.33859701 -1.3125 51 C-2.11300781 51.37125 -2.91351563 51.7425 -3.73828125 52.125 C-6 53 -6 53 -9 53 C-9.86035857 48.53536447 -10.71466528 44.0696285 -11.56347656 39.6027832 C-11.85284597 38.08456487 -12.1438431 36.5666558 -12.43652344 35.04907227 C-12.85784237 32.86294293 -13.27322233 30.67575444 -13.6875 28.48828125 C-13.81874268 27.81412674 -13.94998535 27.13997223 -14.08520508 26.44538879 C-14.74742802 22.91561505 -15.14500495 19.59189352 -15 16 C-15.763125 16.33 -16.52625 16.66 -17.3125 17 C-20 18 -20 18 -23 18 C-23.33 15.03 -23.66 12.06 -24 9 C-6.66666667 0 -6.66666667 0 0 0 Z " fill="#F8FAFB" transform="translate(361,389)"/>
<path d="M0 0 C0.863371 5.38803206 1.71752326 10.77741865 2.56347656 16.16821289 C2.85201409 17.99868336 3.14298733 19.82877172 3.43652344 21.65844727 C3.86006452 24.3012572 4.27458126 26.94535588 4.6875 29.58984375 C4.81874268 30.39646957 4.94998535 31.2030954 5.08520508 32.03416443 C5.91381425 37.41543497 6.11418741 42.55468791 6 48 C-1.625 51 -1.625 51 -5 51 C-7.97104487 35.05985626 -10.23030462 19.11686864 -12 3 C-10.37604003 2.49663233 -8.75079459 1.99741024 -7.125 1.5 C-6.22007812 1.2215625 -5.31515625 0.943125 -4.3828125 0.65625 C-2 0 -2 0 0 0 Z " fill="#F6F8FA" transform="translate(333,399)"/>
<path d="M0 0 C3.63 0.66 7.26 1.32 11 2 C10.43196098 12.7463929 9.06374893 23.24836295 7.4375 33.875 C7.20068031 35.44914488 6.96434946 37.02336338 6.72851562 38.59765625 C6.15795387 42.39930654 5.58086259 46.19991055 5 50 C0.80530429 49.40075776 -3.00999834 48.42500059 -7 47 C-6.47058009 42.51958173 -5.93736088 38.03963542 -5.40087891 33.56005859 C-5.21953964 32.04162308 -5.03917213 30.52307115 -4.85986328 29.00439453 C-1.87632347 3.75264693 -1.87632347 3.75264693 0 0 Z " fill="#F7F8FA" transform="translate(188,402)"/>
<path d="M0 0 C1.60746056 0.42523816 3.21089836 0.86570126 4.8125 1.3125 C6.15248047 1.67794922 6.15248047 1.67794922 7.51953125 2.05078125 C10.0985936 3.03772952 11.35906555 3.79769323 13 6 C13.1875 9.1875 13.1875 9.1875 13 12 C13.928125 11.175 14.85625 10.35 15.8125 9.5 C18.625 7 18.625 7 22 7 C22 8.65 22 10.3 22 12 C21.34 12 20.68 12 20 12 C19.690625 12.78375 19.38125 13.5675 19.0625 14.375 C18 17 18 17 17 19 C15.67511887 19.36548445 14.33981486 19.6937566 13 20 C11.6520257 20.63654342 10.31403276 21.29605388 9 22 C8.34 21.34 7.68 20.68 7 20 C4.93125966 19.3574765 4.93125966 19.3574765 3 19 C2.34 21.31 1.68 23.62 1 26 C0.34 26 -0.32 26 -1 26 C-1 24.35 -1 22.7 -1 21 C-1.66 20.67 -2.32 20.34 -3 20 C-2.35455571 16.51460083 -0.89865603 13.97180943 1 11 C-0.32 10.67 -1.64 10.34 -3 10 C-3 9.01 -3 8.02 -3 7 C-2.4225 7.20625 -1.845 7.4125 -1.25 7.625 C1.55436855 8.09239476 2.65386819 7.53712084 5 6 C5.33 5.34 5.66 4.68 6 4 C4.35 3.67 2.7 3.34 1 3 C0.67 2.01 0.34 1.02 0 0 Z " fill="#5B87AA" transform="translate(251,146)"/>
<path d="M0 0 C1.12921875 -0.00515625 2.2584375 -0.0103125 3.421875 -0.015625 C6.25 0.25 6.25 0.25 8.25 2.25 C7.26 3.57 6.27 4.89 5.25 6.25 C4.59 5.59 3.93 4.93 3.25 4.25 C1.34353914 4.48888365 1.34353914 4.48888365 -0.6875 5.1875 C-3.815142 6.16379199 -4.48897089 6.3370097 -7.75 5.25 C-12.46906188 5.25 -14.02037031 6.53754204 -17.75 9.25 C-16.1 8.59 -14.45 7.93 -12.75 7.25 C-13.3125 9.0625 -13.3125 9.0625 -14.75 11.25 C-17.05965848 12.30352843 -19.3929774 13.30719096 -21.75 14.25 C-22.08 14.91 -22.41 15.57 -22.75 16.25 C-23.41 16.25 -24.07 16.25 -24.75 16.25 C-24.75 17.24 -24.75 18.23 -24.75 19.25 C-23.1 18.92 -21.45 18.59 -19.75 18.25 C-19.42 19.9 -19.09 21.55 -18.75 23.25 C-18.09 23.25 -17.43 23.25 -16.75 23.25 C-16.42 22.26 -16.09 21.27 -15.75 20.25 C-15.75 21.24 -15.75 22.23 -15.75 23.25 C-14.43 23.25 -13.11 23.25 -11.75 23.25 C-11.75 24.24 -11.75 25.23 -11.75 26.25 C-16.7 26.745 -16.7 26.745 -21.75 27.25 C-22.08 26.26 -22.41 25.27 -22.75 24.25 C-24.73 24.91 -26.71 25.57 -28.75 26.25 C-28.75 27.24 -28.75 28.23 -28.75 29.25 C-29.41 29.25 -30.07 29.25 -30.75 29.25 C-30.5363519 20.85945628 -27.87297249 15.78388993 -22.375 9.5625 C-15.39377301 3.41237146 -9.63047222 -0.04438006 0 0 Z " fill="#BEB7C3" transform="translate(256.75,118.75)"/>
<path d="M0 0 C1.5 2.1875 1.5 2.1875 3 5 C5.57257971 9.20188019 7.99661102 12.10866351 12 15 C11.95875 13.906875 11.9175 12.81375 11.875 11.6875 C12 8 12 8 14 5 C15.231394 8.69418201 14.64432764 11.2056261 14 15 C17.3 15.66 20.6 16.32 24 17 C24 17.33 24 17.66 24 18 C14.35631534 18.45922308 8.06258597 17.09958427 0.625 10.6875 C-2.95361943 7.43266043 -5.02378272 4.41780187 -7 0 C-3.84150454 -1.05283182 -2.969245 -1.29904469 0 0 Z " fill="#224E7C" transform="translate(236,161)"/>
<path d="M0 0 C0.57184845 8.21237916 -0.73317769 14.46005743 -4 22 C-5.32 22 -6.64 22 -8 22 C-8 21.01 -8 20.02 -8 19 C-9.32 20.65 -10.64 22.3 -12 24 C-11.505 19.545 -11.505 19.545 -11 15 C-10.01 15.33 -9.02 15.66 -8 16 C-8 14.35 -8 12.7 -8 11 C-6.35 10.67 -4.7 10.34 -3 10 C-3 7.03 -3 4.06 -3 1 C-1 0 -1 0 0 0 Z " fill="#255380" transform="translate(286,144)"/>
<path d="M0 0 C1.08642103 3.2592631 0.92167347 3.8663102 0 7 C-0.103125 7.86625 -0.20625 8.7325 -0.3125 9.625 C-1 12 -1 12 -2.75 13.125 C-3.4925 13.41375 -4.235 13.7025 -5 14 C-6.2684375 14.8353125 -6.2684375 14.8353125 -7.5625 15.6875 C-8.7690625 16.3371875 -8.7690625 16.3371875 -10 17 C-10.99 16.67 -11.98 16.34 -13 16 C-13 15.34 -13 14.68 -13 14 C-14.98 14 -16.96 14 -19 14 C-19.33 13.01 -19.66 12.02 -20 11 C-19.67 10.34 -19.34 9.68 -19 9 C-16.625 8.875 -16.625 8.875 -14 9 C-13.34 9.66 -12.68 10.32 -12 11 C-11.21625 10.484375 -10.4325 9.96875 -9.625 9.4375 C-8.75875 8.963125 -7.8925 8.48875 -7 8 C-6.34 8.33 -5.68 8.66 -5 9 C-4.690625 8.21625 -4.38125 7.4325 -4.0625 6.625 C-3 4 -3 4 -2 2 C-1.34 2 -0.68 2 0 2 C0 1.34 0 0.68 0 0 Z " fill="#38658E" transform="translate(273,156)"/>
<path d="M0 0 C3 2 3 2 4.6875 5.1875 C7.94425773 11.09654149 12.94490454 15.50014005 19.25 17.9375 C25.39737724 19.65577732 32.88272122 20.62244334 38.671875 17.609375 C40.45593303 16.37609999 42.23018036 15.12862225 44 13.875 C46.83301344 12.1043666 48.72417353 11.38539135 52 11 C48.28547616 16.90946974 42.05557674 20.03150406 35.3828125 21.625 C26.83968983 22.96949144 18.80258979 21.29334337 11.75 16.25 C6.1619942 11.68005194 1.75140762 7.18077124 0 0 Z " fill="#CEC5CD" transform="translate(227,159)"/>
<path d="M0 0 C2.05067382 2.23804503 3.01037972 3.35022973 2.9609375 6.4453125 C2.76757812 7.32960938 2.57421875 8.21390625 2.375 9.125 C2.16875 10.08277344 1.9625 11.04054688 1.75 12.02734375 C0.64670775 16.40028857 -0.60465265 20.71163247 -2 25 C-2.99 25 -3.98 25 -5 25 C-5.2319794 20.16584869 -4.38947032 15.98495917 -3.0625 11.375 C-2.69909744 10.07034628 -2.33581274 8.76565973 -1.97265625 7.4609375 C-1.65167969 6.31882812 -1.33070313 5.17671875 -1 4 C-0.65970873 2.66842547 -0.32215107 1.33607918 0 0 Z " fill="#214B7C" transform="translate(133,396)"/>
<path d="M0 0 C0.66 0.33 1.32 0.66 2 1 C2 2.32 2 3.64 2 5 C2.66 5 3.32 5 4 5 C4.33 4.01 4.66 3.02 5 2 C5 2.99 5 3.98 5 5 C6.32 5 7.64 5 9 5 C9 5.99 9 6.98 9 8 C5.7 8.33 2.4 8.66 -1 9 C-1.33 8.01 -1.66 7.02 -2 6 C-5.465 7.485 -5.465 7.485 -9 9 C-7.75282088 5.25846263 -5.90112219 3.62482484 -3 1 C-2.01 0.67 -1.02 0.34 0 0 Z " fill="#537CA0" transform="translate(236,137)"/>
<path d="M0 0 C0.99 0 1.98 0 3 0 C3 6.93 3 13.86 3 21 C2.34 21 1.68 21 1 21 C0.21311555 18.22276075 -0.11949924 15.77389923 -0.09765625 12.890625 C-0.09443359 12.13652344 -0.09121094 11.38242187 -0.08789062 10.60546875 C-0.07951172 9.82816406 -0.07113281 9.05085938 -0.0625 8.25 C-0.05798828 7.45722656 -0.05347656 6.66445313 -0.04882812 5.84765625 C-0.03708565 3.89840492 -0.01915146 1.94919262 0 0 Z " fill="#06346B" transform="translate(273,438)"/>
<path d="M0 0 C0.33 0 0.66 0 1 0 C1 1.65 1 3.3 1 5 C0.34 5 -0.32 5 -1 5 C-0.731875 5.556875 -0.46375 6.11375 -0.1875 6.6875 C-0.125625 7.450625 -0.06375 8.21375 0 9 C-1.6454378 10.68762851 -3.31288577 12.3540349 -5 14 C-5 15.32 -5 16.64 -5 18 C-5.66 18 -6.32 18 -7 18 C-6.81997112 10.92977473 -5.12910684 5.12910684 0 0 Z " fill="#B1B7C7" transform="translate(233,130)"/>
<path d="M0 0 C0.33 0 0.66 0 1 0 C2.01107131 18.10941062 2.01107131 18.10941062 -4 26 C-4.99 26.66 -5.98 27.32 -7 28 C-7 27.34 -7 26.68 -7 26 C-7.66 26 -8.32 26 -9 26 C-9.33 24.68 -9.66 23.36 -10 22 C-8.68 21.34 -7.36 20.68 -6 20 C-6.33 21.32 -6.66 22.64 -7 24 C-6.34 24 -5.68 24 -5 24 C-1.54697738 15.98577542 -0.27679847 8.70531186 0 0 Z " fill="#CCC6D0" transform="translate(286,142)"/>
<path d="M0 0 C4.38030464 3.76350757 6.95213965 8.56783117 9.8125 13.5 C10.32748047 14.35464844 10.84246094 15.20929688 11.37304688 16.08984375 C11.85451172 16.91613281 12.33597656 17.74242187 12.83203125 18.59375 C13.27264893 19.34333984 13.7132666 20.09292969 14.16723633 20.86523438 C15.14556351 23.37314785 14.91609262 24.51391538 14 27 C13.62488281 26.2265625 13.24976563 25.453125 12.86328125 24.65625 C9.8596347 18.54303485 6.72756938 12.70098847 3 7 C2.01 7.495 2.01 7.495 1 8 C0.67 5.36 0.34 2.72 0 0 Z " fill="#0E366D" transform="translate(362,390)"/>
<path d="M0 0 C1.18224668 3.54674003 0.89329634 5.97522995 0.5625 9.6875 C0.46066406 10.86699219 0.35882813 12.04648438 0.25390625 13.26171875 C0.17011719 14.16535156 0.08632813 15.06898437 0 16 C1.65 16 3.3 16 5 16 C5 16.66 5 17.32 5 18 C3.25 18.75 3.25 18.75 1 19 C-1.73957704 17.04315926 -2.82723022 15.46431879 -4 12.3125 C-4 7.60746918 -2.13478646 4.12297814 0 0 Z " fill="#A71F24" transform="translate(271,94)"/>
<path d="M0 0 C2 3 2 3 1.625 5.3125 C1.41875 6.199375 1.2125 7.08625 1 8 C1.04125 8.9075 1.0825 9.815 1.125 10.75 C0.95543395 15.15871725 -0.46698367 18.89370625 -2 23 C-2.66 23 -3.32 23 -4 23 C-2.96324187 15.24637268 -1.83622588 7.60722152 0 0 Z " fill="#234E7E" transform="translate(232,412)"/>
<path d="M0 0 C0 2.31 0 4.62 0 7 C-0.33 7 -0.66 7 -1 7 C-1.99 10.96 -2.98 14.92 -4 19 C-4.33 19 -4.66 19 -5 19 C-5.33 17.35 -5.66 15.7 -6 14 C-6.99 14.495 -6.99 14.495 -8 15 C-8 13.68 -8 12.36 -8 11 C-6.35 10.67 -4.7 10.34 -3 10 C-3 7.03 -3 4.06 -3 1 C-1 0 -1 0 0 0 Z " fill="#54799C" transform="translate(286,144)"/>
<path d="M0 0 C0.66 0 1.32 0 2 0 C2.08097324 2.27024968 2.13917704 4.54132075 2.1875 6.8125 C2.22230469 8.07707031 2.25710937 9.34164063 2.29296875 10.64453125 C2 14 2 14 0.48828125 15.94921875 C-0.00285156 16.29597656 -0.49398437 16.64273437 -1 17 C-1.33 16.67 -1.66 16.34 -2 16 C-1.9140625 14.1796875 -1.9140625 14.1796875 -1.625 11.875 C-1.52574219 11.06933594 -1.42648438 10.26367188 -1.32421875 9.43359375 C-0.90478311 6.28529976 -0.46788173 3.14149162 0 0 Z " fill="#355A87" transform="translate(160,421)"/>
<path d="M0 0 C0.8353125 0.37125 0.8353125 0.37125 1.6875 0.75 C0.3675 1.74 -0.9525 2.73 -2.3125 3.75 C-0.6625 3.09 0.9875 2.43 2.6875 1.75 C2.1875 3.5625 2.1875 3.5625 0.6875 5.75 C-1.8988924 7.01152609 -4.56450829 7.90643045 -7.3125 8.75 C-7.625 6.5 -7.625 6.5 -7.3125 3.75 C-3.41056452 -0.36870968 -3.41056452 -0.36870968 0 0 Z " fill="#7593AF" transform="translate(241.3125,124.25)"/>
<path d="M0 0 C-1.44424635 3.23861303 -3.25772247 5.61969163 -5.625 8.25 C-6.25664063 8.95640625 -6.88828125 9.6628125 -7.5390625 10.390625 C-8.02117187 10.92171875 -8.50328125 11.4528125 -9 12 C-9.703125 10.265625 -9.703125 10.265625 -10 8 C-8.671875 5.859375 -8.671875 5.859375 -6.75 3.75 C-6.12609375 3.04359375 -5.5021875 2.3371875 -4.859375 1.609375 C-3 0 -3 0 0 0 Z " fill="#1E406F" transform="translate(118,34)"/>
<path d="M0 0 C0 3.77910478 -0.99703962 4.46106101 -3.5 7.1875 C-4.1496875 7.90292969 -4.799375 8.61835937 -5.46875 9.35546875 C-5.9740625 9.89816406 -6.479375 10.44085938 -7 11 C-7.33 10.34 -7.66 9.68 -8 9 C-10.02463255 8.34786708 -10.02463255 8.34786708 -12 8 C-12.33 6.68 -12.66 5.36 -13 4 C-12.34 4 -11.68 4 -11 4 C-11 4.99 -11 5.98 -11 7 C-6.40693504 5.5140084 -3.56430755 3.14985318 0 0 Z " fill="#A6252A" transform="translate(294,111)"/>
<path d="M0 0 C0.99 0.33 1.98 0.66 3 1 C3 3.97 3 6.94 3 10 C2.01 10.33 1.02 10.66 0 11 C0 7.37 0 3.74 0 0 Z " fill="#0F3A70" transform="translate(272,419)"/>
<path d="M0 0 C0.66 0.33 1.32 0.66 2 1 C0.92781799 2.01194706 -0.15826378 3.00918057 -1.25 4 C-2.15492188 4.8353125 -2.15492188 4.8353125 -3.078125 5.6875 C-5 7 -5 7 -9 7 C-8.4375 5.1875 -8.4375 5.1875 -7 3 C-3.5 1.1875 -3.5 1.1875 0 0 Z " fill="#E8E6EA" transform="translate(277,170)"/>
<path d="M0 0 C0 2.64 0 5.28 0 8 C-4.875 3.375 -4.875 3.375 -6 0 C-3 -1 -3 -1 0 0 Z " fill="#194777" transform="translate(235,161)"/>
<path d="M0 0 C0.99 0.66 1.98 1.32 3 2 C-2.82254243 3.96818336 -7.83381819 5.40214229 -14 5 C-14.33 4.34 -14.66 3.68 -15 3 C-14.25234375 2.95101562 -13.5046875 2.90203125 -12.734375 2.8515625 C-11.74953125 2.77679688 -10.7646875 2.70203125 -9.75 2.625 C-8.28820312 2.52058594 -8.28820312 2.52058594 -6.796875 2.4140625 C-4.10366811 2.01534751 -2.33036721 1.36492937 0 0 Z " fill="#CDB4BC" transform="translate(267,176)"/>
<path d="M0 0 C-7.51479821 4.12376682 -7.51479821 4.12376682 -11.15625 3.8203125 C-13.0625 3.25 -13.0625 3.25 -16 2 C-16 1.67 -16 1.34 -16 1 C-13.8973294 0.63705686 -11.79278943 0.28493028 -9.6875 -0.0625 C-8.51574219 -0.25972656 -7.34398437 -0.45695313 -6.13671875 -0.66015625 C-3 -1 -3 -1 0 0 Z " fill="#AE3237" transform="translate(313,135)"/>
<path d="M0 0 C0.66 0.66 1.32 1.32 2 2 C1.96712417 4.72869407 1.43602229 7.2966618 1 10 C0.01 10 -0.98 10 -2 10 C-2.17942163 6.05272412 -2.09350689 3.4019487 0 0 Z " fill="#194276" transform="translate(130,411)"/>
<path d="M0 0 C1.67079383 2.54856595 2.04343532 3.6929123 1.609375 6.76171875 C1.32578125 7.72722656 1.0421875 8.69273437 0.75 9.6875 C0.47671875 10.66074219 0.2034375 11.63398438 -0.078125 12.63671875 C-1 15 -1 15 -3 16 C-2.57910004 10.39538469 -2.08386889 5.27913453 0 0 Z " fill="#AB2C31" transform="translate(244,190)"/>
<path d="M0 0 C0.99 0.495 0.99 0.495 2 1 C1.67 1.66 1.34 2.32 1 3 C5.06368679 3.77403558 8.86425173 4.0984702 13 4 C13 4.99 13 5.98 13 7 C11.20767663 6.69128878 9.41615679 6.37790936 7.625 6.0625 C6.62726563 5.88847656 5.62953125 5.71445313 4.6015625 5.53515625 C2 5 2 5 0 4 C0 2.68 0 1.36 0 0 Z " fill="#2F5B86" transform="translate(250,172)"/>
<path d="M0 0 C0.66 0.33 1.32 0.66 2 1 C2 4.96 2 8.92 2 13 C1.67 11.68 1.34 10.36 1 9 C0.34 9 -0.32 9 -1 9 C-1.125 2.25 -1.125 2.25 0 0 Z " fill="#04336B" transform="translate(200,404)"/>
<path d="M0 0 C2 2 2 2 2.046875 3.875 C1.89992187 4.926875 1.89992187 4.926875 1.75 6 C1.61851562 7.051875 1.61851562 7.051875 1.484375 8.125 C1 10 1 10 -1 12 C-2.11658501 7.31034294 -1.80619523 4.46236469 0 0 Z " fill="#0A366D" transform="translate(136,388)"/>
<path d="M0 0 C4.49797113 1.68673918 8.72886302 3.81673892 13 6 C9.25 7.125 9.25 7.125 7 6 C6.67 6.66 6.34 7.32 6 8 C4.02 5.36 2.04 2.72 0 0 Z " fill="#A52226" transform="translate(185,138)"/>
<path d="M0 0 C0.33 1.32 0.66 2.64 1 4 C1.66 4 2.32 4 3 4 C3.33 3.34 3.66 2.68 4 2 C3.71758359 3.46015291 3.42373386 4.91809793 3.125 6.375 C2.96257812 7.18710938 2.80015625 7.99921875 2.6328125 8.8359375 C2 11 2 11 0 13 C0 8.71 0 4.42 0 0 Z " fill="#9D070D" transform="translate(282,203)"/>
<path d="M0 0 C0 0.99 0 1.98 0 3 C0.99 4.485 0.99 4.485 2 6 C1.625 9.1875 1.625 9.1875 1 12 C0.34 12 -0.32 12 -1 12 C-1 10.35 -1 8.7 -1 7 C-1.66 6.67 -2.32 6.34 -3 6 C-2.42655063 3.13275314 -2.1385485 2.1385485 0 0 Z " fill="#6D90AF" transform="translate(251,160)"/>
<path d="M0 0 C4.29 0.66 8.58 1.32 13 2 C12.67 2.99 12.34 3.98 12 5 C7.91621717 4.25749403 3.98060777 3.17076699 0 2 C0 1.34 0 0.68 0 0 Z " fill="#B5484C" transform="translate(203,135)"/>
<path d="M0 0 C0.33 0.99 0.66 1.98 1 3 C1.99 3.33 2.98 3.66 4 4 C2.948125 4.5775 1.89625 5.155 0.8125 5.75 C-2.3786482 7.5661006 -5.19489535 9.61991121 -8 12 C-6.43909056 8.16867684 -3.8924866 5.8924866 -1 3 C-0.67 2.01 -0.34 1.02 0 0 Z " fill="#A11C1F" transform="translate(226,177)"/>
<path d="M0 0 C0.66 0 1.32 0 2 0 C1.71758359 1.46015291 1.42373386 2.91809793 1.125 4.375 C0.96257812 5.18710938 0.80015625 5.99921875 0.6328125 6.8359375 C0 9 0 9 -2 11 C-3.14947895 7.44706507 -3.0868937 6.20023331 -1.5625 2.6875 C-1.046875 1.800625 -0.53125 0.91375 0 0 Z " fill="#AA2A2F" transform="translate(311,104)"/>
<path d="M0 0 C0.66 0 1.32 0 2 0 C1.95875 1.11375 1.9175 2.2275 1.875 3.375 C1.58878141 7.04366025 1.58878141 7.04366025 4 9 C0.125 8.125 0.125 8.125 -1 7 C-1.125 4 -1.125 4 -1 1 C-0.67 0.67 -0.34 0.34 0 0 Z " fill="#0B376E" transform="translate(303,414)"/>
<path d="M0 0 C1.5625 1.5625 1.5625 1.5625 3 4 C2.6875 7.75 2.6875 7.75 2 11 C0.4375 9.4375 0.4375 9.4375 -1 7 C-0.6875 3.25 -0.6875 3.25 0 0 Z " fill="#2D5785" transform="translate(133,396)"/>
<path d="M0 0 C0.66 0.33 1.32 0.66 2 1 C1.21625 1.556875 0.4325 2.11375 -0.375 2.6875 C-3.08704858 5.07668565 -3.96133543 6.60073413 -5 10 C-5.66 9.67 -6.32 9.34 -7 9 C-7 6.69 -7 4.38 -7 2 C-6.21625 2.04125 -5.4325 2.0825 -4.625 2.125 C-1.83883881 2.28728734 -1.83883881 2.28728734 0 0 Z " fill="#9C070C" transform="translate(247,226)"/>
<path d="M0 0 C0.66 0.33 1.32 0.66 2 1 C2.73075648 3.3140622 3.40138258 5.64828869 4 8 C3.34 8 2.68 8 2 8 C2 7.34 2 6.68 2 6 C0.68 6.33 -0.64 6.66 -2 7 C-1.34 4.69 -0.68 2.38 0 0 Z " fill="#A61F25" transform="translate(281,82)"/>
<path d="M0 0 C2 2 2 2 2.3125 4.4375 C2 7 2 7 -1 10 C-1.33 7.03 -1.66 4.06 -2 1 C-1.34 0.67 -0.68 0.34 0 0 Z " fill="#0A386F" transform="translate(335,398)"/>
<path d="M0 0 C0.33 0.99 0.66 1.98 1 3 C2.32 3 3.64 3 5 3 C5 3.99 5 4.98 5 6 C2.69 6 0.38 6 -2 6 C-2 5.01 -2 4.02 -2 3 C-1.34 3 -0.68 3 0 3 C0 2.01 0 1.02 0 0 Z " fill="#5D89AB" transform="translate(240,139)"/>
<path d="M0 0 C0.66 0.33 1.32 0.66 2 1 C3.53668865 1.22467831 5.07968054 1.40796805 6.625 1.5625 C7.44226563 1.64628906 8.25953125 1.73007813 9.1015625 1.81640625 C9.72804688 1.87699219 10.35453125 1.93757813 11 2 C11 2.33 11 2.66 11 3 C8.36 3.33 5.72 3.66 3 4 C3 4.66 3 5.32 3 6 C2.34 6 1.68 6 1 6 C1 4.68 1 3.36 1 2 C0.01 1.67 -0.98 1.34 -2 1 C-1.34 0.67 -0.68 0.34 0 0 Z " fill="#B5444A" transform="translate(331,119)"/>
<path d="M0 0 C3.56311466 1.78155733 5.35645475 3.16763009 8 6 C7.01 6.495 7.01 6.495 6 7 C6 6.34 6 5.68 6 5 C4.68 4.67 3.36 4.34 2 4 C2 5.98 2 7.96 2 10 C1.67 10 1.34 10 1 10 C0.67 6.7 0.34 3.4 0 0 Z " fill="#AC2F34" transform="translate(200,104)"/>
<path d="M0 0 C4.95 0.33 9.9 0.66 15 1 C15 1.33 15 1.66 15 2 C13.54263913 2.19491452 12.08405407 2.38069358 10.625 2.5625 C9.81289062 2.66691406 9.00078125 2.77132812 8.1640625 2.87890625 C6 3 6 3 4 2 C3.67 2.66 3.34 3.32 3 4 C2.01 2.68 1.02 1.36 0 0 Z " fill="#AE3439" transform="translate(210,94)"/>
<path d="M0 0 C0 0.66 0 1.32 0 2 C-5.75 5 -5.75 5 -8 5 C-8.33 5.66 -8.66 6.32 -9 7 C-8.67 5.35 -8.34 3.7 -8 2 C-2.25 0 -2.25 0 0 0 Z " fill="#A72025" transform="translate(325,180)"/>
<path d="M0 0 C0.33 0.66 0.66 1.32 1 2 C2.98 2 4.96 2 7 2 C7 2.66 7 3.32 7 4 C4.69 4.33 2.38 4.66 0 5 C-0.5625 3.0625 -0.5625 3.0625 -1 1 C-0.67 0.67 -0.34 0.34 0 0 Z " fill="#2A5783" transform="translate(253,168)"/>
<path d="M0 0 C0.94875 0.04125 1.8975 0.0825 2.875 0.125 C2.215 1.775 1.555 3.425 0.875 5.125 C-0.115 4.465 -1.105 3.805 -2.125 3.125 C-3.115 2.795 -4.105 2.465 -5.125 2.125 C-3.125 0.125 -3.125 0.125 0 0 Z " fill="#84A5BF" transform="translate(262.125,119.875)"/>
<path d="M0 0 C2.86697492 1.28519565 4.97607712 2.57129254 7 5 C7 5.66 7 6.32 7 7 C5.68 7.33 4.36 7.66 3 8 C2.690625 7.05125 2.38125 6.1025 2.0625 5.125 C1.12605258 2.13919592 1.12605258 2.13919592 0 0 Z " fill="#9C060B" transform="translate(200,179)"/>
<path d="M0 0 C2 3 2 3 1.7578125 5.04296875 C1.171875 7.02864583 0.5859375 9.01432292 0 11 C-1.125 9.4375 -1.125 9.4375 -2 7 C-1.125 3.25 -1.125 3.25 0 0 Z " fill="#B0C3D3" transform="translate(274,156)"/>
<path d="M0 0 C0 2.31 0 4.62 0 7 C-0.99 7.33 -1.98 7.66 -3 8 C-3 5.69 -3 3.38 -3 1 C-1 0 -1 0 0 0 Z " fill="#658AAA" transform="translate(286,144)"/>
<path d="M0 0 C0.99 1.32 1.98 2.64 3 4 C0.69 4 -1.62 4 -4 4 C-3.67 3.01 -3.34 2.02 -3 1 C-2.01 0.67 -1.02 0.34 0 0 Z " fill="#6D96B5" transform="translate(246,135)"/>
<path d="M0 0 C0.33 0 0.66 0 1 0 C1 1.65 1 3.3 1 5 C0.01 4.67 -0.98 4.34 -2 4 C-2.66 5.65 -3.32 7.3 -4 9 C-4.33 8.34 -4.66 7.68 -5 7 C-1.125 1.125 -1.125 1.125 0 0 Z " fill="#DAD6DD" transform="translate(233,130)"/>
<path d="M0 0 C2.31 0 4.62 0 7 0 C7 0.66 7 1.32 7 2 C5.1875 3.0625 5.1875 3.0625 3 4 C2.01 3.67 1.02 3.34 0 3 C0 2.01 0 1.02 0 0 Z " fill="#537FA2" transform="translate(249,121)"/>
<path d="M0 0 C0.33 0.99 0.66 1.98 1 3 C-1.3125 4.5625 -1.3125 4.5625 -4 6 C-4.99 5.67 -5.98 5.34 -7 5 C-4.69 3.35 -2.38 1.7 0 0 Z " fill="#E0E7EE" transform="translate(245,123)"/>
</svg>
